<mxfile host="app.diagrams.net" modified="2023-03-16T14:15:02.341Z" agent="5.0 (Windows NT 10.0; Win64; x64) AppleWebKit/537.36 (KHTML, like Gecko) Chrome/111.0.0.0 Safari/537.36" etag="zWh_bUtUL9vfl1ttXETi" version="21.0.6" type="github">
  <diagram name="Page-1" id="gBcE6Pf8J5rs9S4aQflP">
    <mxGraphModel dx="2774" dy="484" grid="1" gridSize="10" guides="1" tooltips="1" connect="1" arrows="1" fold="1" page="1" pageScale="1" pageWidth="827" pageHeight="1169" math="0" shadow="0">
      <root>
        <mxCell id="0" />
        <mxCell id="1" parent="0" />
        <mxCell id="7VmttGygovowHh0-dZg9-2" style="edgeStyle=orthogonalEdgeStyle;rounded=0;orthogonalLoop=1;jettySize=auto;html=1;exitX=0.5;exitY=0;exitDx=0;exitDy=0;" parent="1" source="7VmttGygovowHh0-dZg9-1" edge="1">
          <mxGeometry relative="1" as="geometry">
            <mxPoint x="-463" y="61" as="targetPoint" />
          </mxGeometry>
        </mxCell>
        <mxCell id="7VmttGygovowHh0-dZg9-1" value="costumer" style="rounded=1;whiteSpace=wrap;html=1;" parent="1" vertex="1">
          <mxGeometry x="-523" y="141" width="120" height="40" as="geometry" />
        </mxCell>
        <mxCell id="7VmttGygovowHh0-dZg9-3" value="jaminan" style="rounded=1;whiteSpace=wrap;html=1;" parent="1" vertex="1">
          <mxGeometry x="-523" y="21" width="120" height="40" as="geometry" />
        </mxCell>
        <mxCell id="7VmttGygovowHh0-dZg9-6" value="registrasi" style="rhombus;whiteSpace=wrap;html=1;" parent="1" vertex="1">
          <mxGeometry x="-763" y="131" width="80" height="60" as="geometry" />
        </mxCell>
        <mxCell id="7VmttGygovowHh0-dZg9-10" value="kantor_cabang" style="rounded=1;whiteSpace=wrap;html=1;" parent="1" vertex="1">
          <mxGeometry x="-923" y="81" width="120" height="40" as="geometry" />
        </mxCell>
        <mxCell id="7VmttGygovowHh0-dZg9-14" value="staff" style="rounded=1;whiteSpace=wrap;html=1;" parent="1" vertex="1">
          <mxGeometry x="-923" y="201" width="120" height="40" as="geometry" />
        </mxCell>
        <mxCell id="7VmttGygovowHh0-dZg9-16" value="" style="endArrow=none;html=1;rounded=0;exitX=0.5;exitY=0;exitDx=0;exitDy=0;" parent="1" source="7VmttGygovowHh0-dZg9-14" edge="1">
          <mxGeometry width="50" height="50" relative="1" as="geometry">
            <mxPoint x="-913" y="171" as="sourcePoint" />
            <mxPoint x="-863" y="121" as="targetPoint" />
          </mxGeometry>
        </mxCell>
        <mxCell id="7VmttGygovowHh0-dZg9-17" style="edgeStyle=orthogonalEdgeStyle;rounded=0;orthogonalLoop=1;jettySize=auto;html=1;exitX=0;exitY=0;exitDx=0;exitDy=0;entryX=0;entryY=0.25;entryDx=0;entryDy=0;" parent="1" source="7VmttGygovowHh0-dZg9-14" target="7VmttGygovowHh0-dZg9-14" edge="1">
          <mxGeometry relative="1" as="geometry" />
        </mxCell>
        <mxCell id="7VmttGygovowHh0-dZg9-18" value="" style="endArrow=classic;html=1;rounded=0;" parent="1" edge="1">
          <mxGeometry width="50" height="50" relative="1" as="geometry">
            <mxPoint x="-849" y="141" as="sourcePoint" />
            <mxPoint x="-849" y="181" as="targetPoint" />
          </mxGeometry>
        </mxCell>
        <mxCell id="7VmttGygovowHh0-dZg9-19" value="" style="endArrow=classic;html=1;rounded=0;" parent="1" edge="1">
          <mxGeometry width="50" height="50" relative="1" as="geometry">
            <mxPoint x="-883" y="142" as="sourcePoint" />
            <mxPoint x="-883" y="182" as="targetPoint" />
          </mxGeometry>
        </mxCell>
        <mxCell id="7VmttGygovowHh0-dZg9-22" style="edgeStyle=orthogonalEdgeStyle;rounded=0;orthogonalLoop=1;jettySize=auto;html=1;exitX=0.5;exitY=0;exitDx=0;exitDy=0;" parent="1" source="7VmttGygovowHh0-dZg9-21" edge="1">
          <mxGeometry relative="1" as="geometry">
            <mxPoint x="-166" y="181" as="targetPoint" />
          </mxGeometry>
        </mxCell>
        <mxCell id="7VmttGygovowHh0-dZg9-21" value="property" style="rounded=1;whiteSpace=wrap;html=1;" parent="1" vertex="1">
          <mxGeometry x="-226" y="221" width="120" height="40" as="geometry" />
        </mxCell>
        <mxCell id="7VmttGygovowHh0-dZg9-23" value="" style="endArrow=none;html=1;rounded=0;" parent="1" edge="1">
          <mxGeometry width="50" height="50" relative="1" as="geometry">
            <mxPoint x="-243" y="181" as="sourcePoint" />
            <mxPoint x="-93" y="181" as="targetPoint" />
          </mxGeometry>
        </mxCell>
        <mxCell id="7VmttGygovowHh0-dZg9-27" value="" style="endArrow=none;html=1;rounded=0;" parent="1" edge="1">
          <mxGeometry width="50" height="50" relative="1" as="geometry">
            <mxPoint x="-94" y="181" as="sourcePoint" />
            <mxPoint x="-94" y="162" as="targetPoint" />
            <Array as="points">
              <mxPoint x="-94" y="162" />
              <mxPoint x="-94" y="142" />
            </Array>
          </mxGeometry>
        </mxCell>
        <mxCell id="7VmttGygovowHh0-dZg9-30" value="sewa" style="rounded=1;whiteSpace=wrap;html=1;" parent="1" vertex="1">
          <mxGeometry x="-145" y="110" width="103" height="30" as="geometry" />
        </mxCell>
        <mxCell id="7VmttGygovowHh0-dZg9-32" value="penjualan" style="rounded=1;whiteSpace=wrap;html=1;" parent="1" vertex="1">
          <mxGeometry x="-292" y="110" width="103" height="30" as="geometry" />
        </mxCell>
        <mxCell id="7VmttGygovowHh0-dZg9-37" value="" style="endArrow=none;html=1;rounded=0;" parent="1" edge="1">
          <mxGeometry width="50" height="50" relative="1" as="geometry">
            <mxPoint x="-243" y="180" as="sourcePoint" />
            <mxPoint x="-243" y="161" as="targetPoint" />
            <Array as="points">
              <mxPoint x="-243" y="161" />
              <mxPoint x="-243" y="141" />
            </Array>
          </mxGeometry>
        </mxCell>
        <mxCell id="7VmttGygovowHh0-dZg9-42" style="edgeStyle=orthogonalEdgeStyle;rounded=0;orthogonalLoop=1;jettySize=auto;html=1;exitX=1;exitY=0.5;exitDx=0;exitDy=0;" parent="1" source="7VmttGygovowHh0-dZg9-41" edge="1">
          <mxGeometry relative="1" as="geometry">
            <mxPoint x="283" y="241" as="targetPoint" />
          </mxGeometry>
        </mxCell>
        <mxCell id="7VmttGygovowHh0-dZg9-41" value="owner" style="rounded=1;whiteSpace=wrap;html=1;" parent="1" vertex="1">
          <mxGeometry x="37" y="221" width="120" height="40" as="geometry" />
        </mxCell>
        <mxCell id="7VmttGygovowHh0-dZg9-43" value="CP" style="rounded=1;whiteSpace=wrap;html=1;" parent="1" vertex="1">
          <mxGeometry x="284" y="221" width="120" height="40" as="geometry" />
        </mxCell>
        <mxCell id="7VmttGygovowHh0-dZg9-44" value="" style="endArrow=none;html=1;rounded=0;" parent="1" edge="1">
          <mxGeometry width="50" height="50" relative="1" as="geometry">
            <mxPoint x="-144" y="261" as="sourcePoint" />
            <mxPoint x="-144" y="381" as="targetPoint" />
          </mxGeometry>
        </mxCell>
        <mxCell id="7VmttGygovowHh0-dZg9-46" value="" style="endArrow=none;html=1;rounded=0;entryX=0;entryY=0.5;entryDx=0;entryDy=0;" parent="1" target="7VmttGygovowHh0-dZg9-1" edge="1">
          <mxGeometry width="50" height="50" relative="1" as="geometry">
            <mxPoint x="-683" y="160" as="sourcePoint" />
            <mxPoint x="-633" y="110" as="targetPoint" />
          </mxGeometry>
        </mxCell>
        <mxCell id="7VmttGygovowHh0-dZg9-47" value="" style="endArrow=none;html=1;rounded=0;" parent="1" edge="1">
          <mxGeometry width="50" height="50" relative="1" as="geometry">
            <mxPoint x="-803" y="101" as="sourcePoint" />
            <mxPoint x="-723" y="101" as="targetPoint" />
          </mxGeometry>
        </mxCell>
        <mxCell id="7VmttGygovowHh0-dZg9-48" value="" style="endArrow=none;html=1;rounded=0;" parent="1" edge="1">
          <mxGeometry width="50" height="50" relative="1" as="geometry">
            <mxPoint x="-803" y="220" as="sourcePoint" />
            <mxPoint x="-723" y="220" as="targetPoint" />
          </mxGeometry>
        </mxCell>
        <mxCell id="7VmttGygovowHh0-dZg9-49" value="" style="endArrow=none;html=1;rounded=0;" parent="1" edge="1">
          <mxGeometry width="50" height="50" relative="1" as="geometry">
            <mxPoint x="-723" y="131" as="sourcePoint" />
            <mxPoint x="-723" y="101" as="targetPoint" />
          </mxGeometry>
        </mxCell>
        <mxCell id="7VmttGygovowHh0-dZg9-50" value="" style="endArrow=none;html=1;rounded=0;" parent="1" edge="1">
          <mxGeometry width="50" height="50" relative="1" as="geometry">
            <mxPoint x="-724" y="221" as="sourcePoint" />
            <mxPoint x="-724" y="191" as="targetPoint" />
          </mxGeometry>
        </mxCell>
        <mxCell id="7VmttGygovowHh0-dZg9-51" value="" style="endArrow=none;html=1;rounded=0;" parent="1" edge="1">
          <mxGeometry width="50" height="50" relative="1" as="geometry">
            <mxPoint x="-863" y="301" as="sourcePoint" />
            <mxPoint x="-863" y="242" as="targetPoint" />
          </mxGeometry>
        </mxCell>
        <mxCell id="7VmttGygovowHh0-dZg9-52" value="" style="endArrow=none;html=1;rounded=0;" parent="1" edge="1">
          <mxGeometry width="50" height="50" relative="1" as="geometry">
            <mxPoint x="-863" y="301" as="sourcePoint" />
            <mxPoint x="-183" y="301" as="targetPoint" />
          </mxGeometry>
        </mxCell>
        <mxCell id="7VmttGygovowHh0-dZg9-53" value="" style="endArrow=none;html=1;rounded=0;" parent="1" edge="1">
          <mxGeometry width="50" height="50" relative="1" as="geometry">
            <mxPoint x="-183" y="261" as="sourcePoint" />
            <mxPoint x="-183" y="301" as="targetPoint" />
          </mxGeometry>
        </mxCell>
        <mxCell id="7VmttGygovowHh0-dZg9-54" value="" style="endArrow=none;html=1;rounded=0;" parent="1" edge="1">
          <mxGeometry width="50" height="50" relative="1" as="geometry">
            <mxPoint x="-403" y="171" as="sourcePoint" />
            <mxPoint x="-273" y="171.56" as="targetPoint" />
          </mxGeometry>
        </mxCell>
        <mxCell id="7VmttGygovowHh0-dZg9-55" value="" style="endArrow=none;html=1;rounded=0;" parent="1" edge="1">
          <mxGeometry width="50" height="50" relative="1" as="geometry">
            <mxPoint x="-273" y="141" as="sourcePoint" />
            <mxPoint x="-273" y="171" as="targetPoint" />
          </mxGeometry>
        </mxCell>
        <mxCell id="7VmttGygovowHh0-dZg9-56" value="" style="endArrow=none;html=1;rounded=0;" parent="1" edge="1">
          <mxGeometry width="50" height="50" relative="1" as="geometry">
            <mxPoint x="-403" y="40.44" as="sourcePoint" />
            <mxPoint x="-93" y="41" as="targetPoint" />
          </mxGeometry>
        </mxCell>
        <mxCell id="7VmttGygovowHh0-dZg9-57" value="" style="endArrow=none;html=1;rounded=0;entryX=0.5;entryY=0;entryDx=0;entryDy=0;" parent="1" target="7VmttGygovowHh0-dZg9-30" edge="1">
          <mxGeometry width="50" height="50" relative="1" as="geometry">
            <mxPoint x="-93" y="40.44" as="sourcePoint" />
            <mxPoint x="-93" y="101" as="targetPoint" />
          </mxGeometry>
        </mxCell>
        <mxCell id="7VmttGygovowHh0-dZg9-58" value="" style="endArrow=none;html=1;rounded=0;" parent="1" edge="1">
          <mxGeometry width="50" height="50" relative="1" as="geometry">
            <mxPoint x="-105" y="241" as="sourcePoint" />
            <mxPoint x="35" y="241" as="targetPoint" />
          </mxGeometry>
        </mxCell>
        <mxCell id="7VmttGygovowHh0-dZg9-60" style="edgeStyle=orthogonalEdgeStyle;rounded=0;orthogonalLoop=1;jettySize=auto;html=1;exitX=0.5;exitY=1;exitDx=0;exitDy=0;" parent="1" source="7VmttGygovowHh0-dZg9-59" edge="1">
          <mxGeometry relative="1" as="geometry">
            <mxPoint x="-142.44444444444434" y="461" as="targetPoint" />
          </mxGeometry>
        </mxCell>
        <mxCell id="7VmttGygovowHh0-dZg9-59" value="iklan" style="rounded=1;whiteSpace=wrap;html=1;" parent="1" vertex="1">
          <mxGeometry x="-203" y="381" width="120" height="40" as="geometry" />
        </mxCell>
        <mxCell id="7VmttGygovowHh0-dZg9-62" value="" style="endArrow=none;html=1;rounded=0;" parent="1" edge="1">
          <mxGeometry width="50" height="50" relative="1" as="geometry">
            <mxPoint x="-283" y="461" as="sourcePoint" />
            <mxPoint x="-3" y="461" as="targetPoint" />
          </mxGeometry>
        </mxCell>
        <mxCell id="7VmttGygovowHh0-dZg9-63" value="" style="endArrow=none;html=1;rounded=0;" parent="1" edge="1">
          <mxGeometry width="50" height="50" relative="1" as="geometry">
            <mxPoint x="-283" y="461" as="sourcePoint" />
            <mxPoint x="-283" y="501" as="targetPoint" />
          </mxGeometry>
        </mxCell>
        <mxCell id="7VmttGygovowHh0-dZg9-64" value="" style="endArrow=none;html=1;rounded=0;" parent="1" edge="1">
          <mxGeometry width="50" height="50" relative="1" as="geometry">
            <mxPoint x="-143" y="461" as="sourcePoint" />
            <mxPoint x="-143" y="501" as="targetPoint" />
          </mxGeometry>
        </mxCell>
        <mxCell id="7VmttGygovowHh0-dZg9-65" value="" style="endArrow=none;html=1;rounded=0;" parent="1" edge="1">
          <mxGeometry width="50" height="50" relative="1" as="geometry">
            <mxPoint x="-3" y="461" as="sourcePoint" />
            <mxPoint x="-3" y="501" as="targetPoint" />
          </mxGeometry>
        </mxCell>
        <mxCell id="7VmttGygovowHh0-dZg9-67" value="internet" style="rounded=1;whiteSpace=wrap;html=1;" parent="1" vertex="1">
          <mxGeometry x="-330" y="501" width="103" height="30" as="geometry" />
        </mxCell>
        <mxCell id="7VmttGygovowHh0-dZg9-69" value="TV" style="rounded=1;whiteSpace=wrap;html=1;" parent="1" vertex="1">
          <mxGeometry x="-194" y="502" width="103" height="30" as="geometry" />
        </mxCell>
        <mxCell id="7VmttGygovowHh0-dZg9-70" value="media_cetak" style="rounded=1;whiteSpace=wrap;html=1;" parent="1" vertex="1">
          <mxGeometry x="-53" y="502" width="103" height="30" as="geometry" />
        </mxCell>
        <mxCell id="7VmttGygovowHh0-dZg9-71" value="dikepalai" style="text;html=1;align=center;verticalAlign=middle;resizable=0;points=[];autosize=1;strokeColor=none;fillColor=none;" parent="1" vertex="1">
          <mxGeometry x="-856" y="146" width="70" height="30" as="geometry" />
        </mxCell>
        <mxCell id="7VmttGygovowHh0-dZg9-72" value="memiliki" style="text;html=1;align=center;verticalAlign=middle;resizable=0;points=[];autosize=1;strokeColor=none;fillColor=none;" parent="1" vertex="1">
          <mxGeometry x="-945" y="144" width="70" height="30" as="geometry" />
        </mxCell>
        <mxCell id="7VmttGygovowHh0-dZg9-73" value="" style="endArrow=classic;html=1;rounded=0;" parent="1" edge="1">
          <mxGeometry width="50" height="50" relative="1" as="geometry">
            <mxPoint x="-625" y="291" as="sourcePoint" />
            <mxPoint x="-425" y="291" as="targetPoint" />
          </mxGeometry>
        </mxCell>
        <mxCell id="7VmttGygovowHh0-dZg9-74" value="mengelola" style="text;html=1;align=center;verticalAlign=middle;resizable=0;points=[];autosize=1;strokeColor=none;fillColor=none;" parent="1" vertex="1">
          <mxGeometry x="-559" y="266" width="80" height="30" as="geometry" />
        </mxCell>
        <mxCell id="7VmttGygovowHh0-dZg9-75" value="" style="endArrow=classic;html=1;rounded=0;" parent="1" edge="1">
          <mxGeometry width="50" height="50" relative="1" as="geometry">
            <mxPoint x="-370" y="182" as="sourcePoint" />
            <mxPoint x="-300" y="182" as="targetPoint" />
          </mxGeometry>
        </mxCell>
        <mxCell id="7VmttGygovowHh0-dZg9-76" value="memiliki" style="text;html=1;align=center;verticalAlign=middle;resizable=0;points=[];autosize=1;strokeColor=none;fillColor=none;" parent="1" vertex="1">
          <mxGeometry x="-374" y="179" width="70" height="30" as="geometry" />
        </mxCell>
        <mxCell id="7VmttGygovowHh0-dZg9-77" value="" style="endArrow=classic;html=1;rounded=0;" parent="1" edge="1">
          <mxGeometry width="50" height="50" relative="1" as="geometry">
            <mxPoint x="-473" y="123" as="sourcePoint" />
            <mxPoint x="-473" y="83" as="targetPoint" />
          </mxGeometry>
        </mxCell>
        <mxCell id="7VmttGygovowHh0-dZg9-78" value="dimiliki" style="text;html=1;align=center;verticalAlign=middle;resizable=0;points=[];autosize=1;strokeColor=none;fillColor=none;" parent="1" vertex="1">
          <mxGeometry x="-529" y="90" width="60" height="30" as="geometry" />
        </mxCell>
        <mxCell id="7VmttGygovowHh0-dZg9-79" value="" style="endArrow=classic;html=1;rounded=0;" parent="1" edge="1">
          <mxGeometry width="50" height="50" relative="1" as="geometry">
            <mxPoint x="-305" y="29" as="sourcePoint" />
            <mxPoint x="-186" y="29" as="targetPoint" />
          </mxGeometry>
        </mxCell>
        <mxCell id="7VmttGygovowHh0-dZg9-80" value="digunakan" style="text;html=1;align=center;verticalAlign=middle;resizable=0;points=[];autosize=1;strokeColor=none;fillColor=none;" parent="1" vertex="1">
          <mxGeometry x="589" y="21" width="80" height="30" as="geometry" />
        </mxCell>
        <mxCell id="7VmttGygovowHh0-dZg9-81" value="" style="endArrow=classic;html=1;rounded=0;" parent="1" edge="1">
          <mxGeometry width="50" height="50" relative="1" as="geometry">
            <mxPoint x="-73" y="231" as="sourcePoint" />
            <mxPoint x="-3" y="231" as="targetPoint" />
          </mxGeometry>
        </mxCell>
        <mxCell id="7VmttGygovowHh0-dZg9-82" value="dimiliki" style="text;html=1;align=center;verticalAlign=middle;resizable=0;points=[];autosize=1;strokeColor=none;fillColor=none;" parent="1" vertex="1">
          <mxGeometry x="-75" y="206" width="60" height="30" as="geometry" />
        </mxCell>
        <mxCell id="7VmttGygovowHh0-dZg9-83" value="" style="curved=1;endArrow=classic;html=1;rounded=0;" parent="1" edge="1">
          <mxGeometry width="50" height="50" relative="1" as="geometry">
            <mxPoint x="-903" y="201" as="sourcePoint" />
            <mxPoint x="-923" y="219" as="targetPoint" />
            <Array as="points">
              <mxPoint x="-903" y="179" />
              <mxPoint x="-943" y="169" />
              <mxPoint x="-953" y="219" />
            </Array>
          </mxGeometry>
        </mxCell>
        <mxCell id="7VmttGygovowHh0-dZg9-84" value="mengepalai" style="text;html=1;align=center;verticalAlign=middle;resizable=0;points=[];autosize=1;strokeColor=none;fillColor=none;" parent="1" vertex="1">
          <mxGeometry x="-1030" y="170" width="90" height="30" as="geometry" />
        </mxCell>
        <mxCell id="7VmttGygovowHh0-dZg9-85" value="1..1" style="text;html=1;align=center;verticalAlign=middle;resizable=0;points=[];autosize=1;strokeColor=none;fillColor=none;" parent="1" vertex="1">
          <mxGeometry x="-1" y="241" width="40" height="30" as="geometry" />
        </mxCell>
        <mxCell id="7VmttGygovowHh0-dZg9-86" value="1..*" style="text;html=1;align=center;verticalAlign=middle;resizable=0;points=[];autosize=1;strokeColor=none;fillColor=none;" parent="1" vertex="1">
          <mxGeometry x="-111" y="243" width="40" height="30" as="geometry" />
        </mxCell>
        <mxCell id="7VmttGygovowHh0-dZg9-87" value="" style="endArrow=classic;html=1;rounded=0;" parent="1" edge="1">
          <mxGeometry width="50" height="50" relative="1" as="geometry">
            <mxPoint x="-152" y="301" as="sourcePoint" />
            <mxPoint x="-152" y="351" as="targetPoint" />
          </mxGeometry>
        </mxCell>
        <mxCell id="7VmttGygovowHh0-dZg9-88" value="diiklankan" style="text;html=1;align=center;verticalAlign=middle;resizable=0;points=[];autosize=1;strokeColor=none;fillColor=none;" parent="1" vertex="1">
          <mxGeometry x="-226" y="312" width="80" height="30" as="geometry" />
        </mxCell>
        <mxCell id="7VmttGygovowHh0-dZg9-89" value="0..1" style="text;html=1;align=center;verticalAlign=middle;resizable=0;points=[];autosize=1;strokeColor=none;fillColor=none;" parent="1" vertex="1">
          <mxGeometry x="-148" y="356" width="40" height="30" as="geometry" />
        </mxCell>
        <mxCell id="7VmttGygovowHh0-dZg9-90" value="1..1" style="text;html=1;align=center;verticalAlign=middle;resizable=0;points=[];autosize=1;strokeColor=none;fillColor=none;" parent="1" vertex="1">
          <mxGeometry x="-150" y="257" width="40" height="30" as="geometry" />
        </mxCell>
        <mxCell id="7VmttGygovowHh0-dZg9-91" value="" style="endArrow=none;dashed=1;html=1;rounded=0;" parent="1" edge="1">
          <mxGeometry width="50" height="50" relative="1" as="geometry">
            <mxPoint x="-141" y="323" as="sourcePoint" />
            <mxPoint x="-43" y="323" as="targetPoint" />
          </mxGeometry>
        </mxCell>
        <mxCell id="7VmttGygovowHh0-dZg9-92" value="property_iklan" style="rounded=1;whiteSpace=wrap;html=1;" parent="1" vertex="1">
          <mxGeometry x="-41" y="302" width="120" height="40" as="geometry" />
        </mxCell>
        <mxCell id="7VmttGygovowHh0-dZg9-93" value="0..*" style="text;html=1;align=center;verticalAlign=middle;resizable=0;points=[];autosize=1;strokeColor=none;fillColor=none;" parent="1" vertex="1">
          <mxGeometry x="-219" y="260" width="40" height="30" as="geometry" />
        </mxCell>
        <mxCell id="7VmttGygovowHh0-dZg9-94" value="1..1" style="text;html=1;align=center;verticalAlign=middle;resizable=0;points=[];autosize=1;strokeColor=none;fillColor=none;" parent="1" vertex="1">
          <mxGeometry x="-863" y="241" width="40" height="30" as="geometry" />
        </mxCell>
        <mxCell id="7VmttGygovowHh0-dZg9-95" value="0..1" style="text;html=1;align=center;verticalAlign=middle;resizable=0;points=[];autosize=1;strokeColor=none;fillColor=none;" parent="1" vertex="1">
          <mxGeometry x="-863" y="116" width="40" height="30" as="geometry" />
        </mxCell>
        <mxCell id="7VmttGygovowHh0-dZg9-96" value="1..1" style="text;html=1;align=center;verticalAlign=middle;resizable=0;points=[];autosize=1;strokeColor=none;fillColor=none;" parent="1" vertex="1">
          <mxGeometry x="-861" y="178" width="40" height="30" as="geometry" />
        </mxCell>
        <mxCell id="7VmttGygovowHh0-dZg9-98" value="1..*" style="text;html=1;align=center;verticalAlign=middle;resizable=0;points=[];autosize=1;strokeColor=none;fillColor=none;" parent="1" vertex="1">
          <mxGeometry x="-900" y="177" width="40" height="30" as="geometry" />
        </mxCell>
        <mxCell id="7VmttGygovowHh0-dZg9-99" value="1..1" style="text;html=1;align=center;verticalAlign=middle;resizable=0;points=[];autosize=1;strokeColor=none;fillColor=none;" parent="1" vertex="1">
          <mxGeometry x="-897" y="116" width="40" height="30" as="geometry" />
        </mxCell>
        <mxCell id="7VmttGygovowHh0-dZg9-102" value="1..*" style="text;html=1;align=center;verticalAlign=middle;resizable=0;points=[];autosize=1;strokeColor=none;fillColor=none;" parent="1" vertex="1">
          <mxGeometry x="-960" y="220" width="40" height="30" as="geometry" />
        </mxCell>
        <mxCell id="7VmttGygovowHh0-dZg9-103" value="0..1" style="text;html=1;align=center;verticalAlign=middle;resizable=0;points=[];autosize=1;strokeColor=none;fillColor=none;" parent="1" vertex="1">
          <mxGeometry x="-942" y="178" width="40" height="30" as="geometry" />
        </mxCell>
        <mxCell id="7VmttGygovowHh0-dZg9-104" value="1..1" style="text;html=1;align=center;verticalAlign=middle;resizable=0;points=[];autosize=1;strokeColor=none;fillColor=none;" parent="1" vertex="1">
          <mxGeometry x="-803" y="71" width="40" height="30" as="geometry" />
        </mxCell>
        <mxCell id="7VmttGygovowHh0-dZg9-105" value="1..*" style="text;html=1;align=center;verticalAlign=middle;resizable=0;points=[];autosize=1;strokeColor=none;fillColor=none;" parent="1" vertex="1">
          <mxGeometry x="-564" y="131" width="40" height="30" as="geometry" />
        </mxCell>
        <mxCell id="7VmttGygovowHh0-dZg9-106" value="1..1" style="text;html=1;align=center;verticalAlign=middle;resizable=0;points=[];autosize=1;strokeColor=none;fillColor=none;" parent="1" vertex="1">
          <mxGeometry x="-803" y="220" width="40" height="30" as="geometry" />
        </mxCell>
        <mxCell id="7VmttGygovowHh0-dZg9-107" value="0..*" style="text;html=1;align=center;verticalAlign=middle;resizable=0;points=[];autosize=1;strokeColor=none;fillColor=none;" parent="1" vertex="1">
          <mxGeometry x="-564" y="161" width="40" height="30" as="geometry" />
        </mxCell>
        <mxCell id="7VmttGygovowHh0-dZg9-108" value="0..*" style="text;html=1;align=center;verticalAlign=middle;resizable=0;points=[];autosize=1;strokeColor=none;fillColor=none;" parent="1" vertex="1">
          <mxGeometry x="-462" y="61" width="40" height="30" as="geometry" />
        </mxCell>
        <mxCell id="7VmttGygovowHh0-dZg9-109" value="1..1" style="text;html=1;align=center;verticalAlign=middle;resizable=0;points=[];autosize=1;strokeColor=none;fillColor=none;" parent="1" vertex="1">
          <mxGeometry x="-462" y="111" width="40" height="30" as="geometry" />
        </mxCell>
        <mxCell id="7VmttGygovowHh0-dZg9-110" value="1..1" style="text;html=1;align=center;verticalAlign=middle;resizable=0;points=[];autosize=1;strokeColor=none;fillColor=none;" parent="1" vertex="1">
          <mxGeometry x="-404" y="10" width="40" height="30" as="geometry" />
        </mxCell>
        <mxCell id="7VmttGygovowHh0-dZg9-111" value="1..*" style="text;html=1;align=center;verticalAlign=middle;resizable=0;points=[];autosize=1;strokeColor=none;fillColor=none;" parent="1" vertex="1">
          <mxGeometry x="-92" y="79" width="40" height="30" as="geometry" />
        </mxCell>
        <mxCell id="7VmttGygovowHh0-dZg9-112" value="1..1" style="text;html=1;align=center;verticalAlign=middle;resizable=0;points=[];autosize=1;strokeColor=none;fillColor=none;" parent="1" vertex="1">
          <mxGeometry x="-405" y="146" width="40" height="30" as="geometry" />
        </mxCell>
        <mxCell id="7VmttGygovowHh0-dZg9-113" value="0..*" style="text;html=1;align=center;verticalAlign=middle;resizable=0;points=[];autosize=1;strokeColor=none;fillColor=none;" parent="1" vertex="1">
          <mxGeometry x="-314" y="142" width="40" height="30" as="geometry" />
        </mxCell>
        <mxCell id="7VmttGygovowHh0-dZg9-127" value="staff" style="shape=table;startSize=30;container=1;collapsible=1;childLayout=tableLayout;fixedRows=1;rowLines=0;fontStyle=1;align=center;resizeLast=1;html=1;" parent="1" vertex="1">
          <mxGeometry x="-860" y="680" width="180" height="210" as="geometry" />
        </mxCell>
        <mxCell id="7VmttGygovowHh0-dZg9-128" value="" style="shape=tableRow;horizontal=0;startSize=0;swimlaneHead=0;swimlaneBody=0;fillColor=none;collapsible=0;dropTarget=0;points=[[0,0.5],[1,0.5]];portConstraint=eastwest;top=0;left=0;right=0;bottom=1;" parent="7VmttGygovowHh0-dZg9-127" vertex="1">
          <mxGeometry y="30" width="180" height="30" as="geometry" />
        </mxCell>
        <mxCell id="7VmttGygovowHh0-dZg9-129" value="PK" style="shape=partialRectangle;connectable=0;fillColor=none;top=0;left=0;bottom=0;right=0;fontStyle=1;overflow=hidden;whiteSpace=wrap;html=1;" parent="7VmttGygovowHh0-dZg9-128" vertex="1">
          <mxGeometry width="30" height="30" as="geometry">
            <mxRectangle width="30" height="30" as="alternateBounds" />
          </mxGeometry>
        </mxCell>
        <mxCell id="7VmttGygovowHh0-dZg9-130" value="ID_staff" style="shape=partialRectangle;connectable=0;fillColor=none;top=0;left=0;bottom=0;right=0;align=left;spacingLeft=6;fontStyle=5;overflow=hidden;whiteSpace=wrap;html=1;" parent="7VmttGygovowHh0-dZg9-128" vertex="1">
          <mxGeometry x="30" width="150" height="30" as="geometry">
            <mxRectangle width="150" height="30" as="alternateBounds" />
          </mxGeometry>
        </mxCell>
        <mxCell id="7VmttGygovowHh0-dZg9-131" value="" style="shape=tableRow;horizontal=0;startSize=0;swimlaneHead=0;swimlaneBody=0;fillColor=none;collapsible=0;dropTarget=0;points=[[0,0.5],[1,0.5]];portConstraint=eastwest;top=0;left=0;right=0;bottom=0;" parent="7VmttGygovowHh0-dZg9-127" vertex="1">
          <mxGeometry y="60" width="180" height="30" as="geometry" />
        </mxCell>
        <mxCell id="7VmttGygovowHh0-dZg9-132" value="" style="shape=partialRectangle;connectable=0;fillColor=none;top=0;left=0;bottom=0;right=0;editable=1;overflow=hidden;whiteSpace=wrap;html=1;" parent="7VmttGygovowHh0-dZg9-131" vertex="1">
          <mxGeometry width="30" height="30" as="geometry">
            <mxRectangle width="30" height="30" as="alternateBounds" />
          </mxGeometry>
        </mxCell>
        <mxCell id="7VmttGygovowHh0-dZg9-133" value="nama" style="shape=partialRectangle;connectable=0;fillColor=none;top=0;left=0;bottom=0;right=0;align=left;spacingLeft=6;overflow=hidden;whiteSpace=wrap;html=1;" parent="7VmttGygovowHh0-dZg9-131" vertex="1">
          <mxGeometry x="30" width="150" height="30" as="geometry">
            <mxRectangle width="150" height="30" as="alternateBounds" />
          </mxGeometry>
        </mxCell>
        <mxCell id="7VmttGygovowHh0-dZg9-134" value="" style="shape=tableRow;horizontal=0;startSize=0;swimlaneHead=0;swimlaneBody=0;fillColor=none;collapsible=0;dropTarget=0;points=[[0,0.5],[1,0.5]];portConstraint=eastwest;top=0;left=0;right=0;bottom=0;" parent="7VmttGygovowHh0-dZg9-127" vertex="1">
          <mxGeometry y="90" width="180" height="30" as="geometry" />
        </mxCell>
        <mxCell id="7VmttGygovowHh0-dZg9-135" value="" style="shape=partialRectangle;connectable=0;fillColor=none;top=0;left=0;bottom=0;right=0;editable=1;overflow=hidden;whiteSpace=wrap;html=1;" parent="7VmttGygovowHh0-dZg9-134" vertex="1">
          <mxGeometry width="30" height="30" as="geometry">
            <mxRectangle width="30" height="30" as="alternateBounds" />
          </mxGeometry>
        </mxCell>
        <mxCell id="7VmttGygovowHh0-dZg9-136" value="jabatan" style="shape=partialRectangle;connectable=0;fillColor=none;top=0;left=0;bottom=0;right=0;align=left;spacingLeft=6;overflow=hidden;whiteSpace=wrap;html=1;" parent="7VmttGygovowHh0-dZg9-134" vertex="1">
          <mxGeometry x="30" width="150" height="30" as="geometry">
            <mxRectangle width="150" height="30" as="alternateBounds" />
          </mxGeometry>
        </mxCell>
        <mxCell id="7VmttGygovowHh0-dZg9-137" value="" style="shape=tableRow;horizontal=0;startSize=0;swimlaneHead=0;swimlaneBody=0;fillColor=none;collapsible=0;dropTarget=0;points=[[0,0.5],[1,0.5]];portConstraint=eastwest;top=0;left=0;right=0;bottom=0;" parent="7VmttGygovowHh0-dZg9-127" vertex="1">
          <mxGeometry y="120" width="180" height="30" as="geometry" />
        </mxCell>
        <mxCell id="7VmttGygovowHh0-dZg9-138" value="" style="shape=partialRectangle;connectable=0;fillColor=none;top=0;left=0;bottom=0;right=0;editable=1;overflow=hidden;whiteSpace=wrap;html=1;" parent="7VmttGygovowHh0-dZg9-137" vertex="1">
          <mxGeometry width="30" height="30" as="geometry">
            <mxRectangle width="30" height="30" as="alternateBounds" />
          </mxGeometry>
        </mxCell>
        <mxCell id="7VmttGygovowHh0-dZg9-139" value="lama_kerja" style="shape=partialRectangle;connectable=0;fillColor=none;top=0;left=0;bottom=0;right=0;align=left;spacingLeft=6;overflow=hidden;whiteSpace=wrap;html=1;" parent="7VmttGygovowHh0-dZg9-137" vertex="1">
          <mxGeometry x="30" width="150" height="30" as="geometry">
            <mxRectangle width="150" height="30" as="alternateBounds" />
          </mxGeometry>
        </mxCell>
        <mxCell id="7VmttGygovowHh0-dZg9-167" value="iklan" style="shape=table;startSize=30;container=1;collapsible=1;childLayout=tableLayout;fixedRows=1;rowLines=0;fontStyle=1;align=center;resizeLast=1;html=1;" parent="1" vertex="1">
          <mxGeometry x="-287" y="1636" width="180" height="150" as="geometry" />
        </mxCell>
        <mxCell id="7VmttGygovowHh0-dZg9-168" value="" style="shape=tableRow;horizontal=0;startSize=0;swimlaneHead=0;swimlaneBody=0;fillColor=none;collapsible=0;dropTarget=0;points=[[0,0.5],[1,0.5]];portConstraint=eastwest;top=0;left=0;right=0;bottom=1;" parent="7VmttGygovowHh0-dZg9-167" vertex="1">
          <mxGeometry y="30" width="180" height="30" as="geometry" />
        </mxCell>
        <mxCell id="7VmttGygovowHh0-dZg9-169" value="PK" style="shape=partialRectangle;connectable=0;fillColor=none;top=0;left=0;bottom=0;right=0;fontStyle=1;overflow=hidden;whiteSpace=wrap;html=1;" parent="7VmttGygovowHh0-dZg9-168" vertex="1">
          <mxGeometry width="30" height="30" as="geometry">
            <mxRectangle width="30" height="30" as="alternateBounds" />
          </mxGeometry>
        </mxCell>
        <mxCell id="7VmttGygovowHh0-dZg9-170" value="ID_iklan" style="shape=partialRectangle;connectable=0;fillColor=none;top=0;left=0;bottom=0;right=0;align=left;spacingLeft=6;fontStyle=5;overflow=hidden;whiteSpace=wrap;html=1;" parent="7VmttGygovowHh0-dZg9-168" vertex="1">
          <mxGeometry x="30" width="150" height="30" as="geometry">
            <mxRectangle width="150" height="30" as="alternateBounds" />
          </mxGeometry>
        </mxCell>
        <mxCell id="7VmttGygovowHh0-dZg9-171" value="" style="shape=tableRow;horizontal=0;startSize=0;swimlaneHead=0;swimlaneBody=0;fillColor=none;collapsible=0;dropTarget=0;points=[[0,0.5],[1,0.5]];portConstraint=eastwest;top=0;left=0;right=0;bottom=0;" parent="7VmttGygovowHh0-dZg9-167" vertex="1">
          <mxGeometry y="60" width="180" height="30" as="geometry" />
        </mxCell>
        <mxCell id="7VmttGygovowHh0-dZg9-172" value="" style="shape=partialRectangle;connectable=0;fillColor=none;top=0;left=0;bottom=0;right=0;editable=1;overflow=hidden;whiteSpace=wrap;html=1;" parent="7VmttGygovowHh0-dZg9-171" vertex="1">
          <mxGeometry width="30" height="30" as="geometry">
            <mxRectangle width="30" height="30" as="alternateBounds" />
          </mxGeometry>
        </mxCell>
        <mxCell id="7VmttGygovowHh0-dZg9-173" value="durasi" style="shape=partialRectangle;connectable=0;fillColor=none;top=0;left=0;bottom=0;right=0;align=left;spacingLeft=6;overflow=hidden;whiteSpace=wrap;html=1;" parent="7VmttGygovowHh0-dZg9-171" vertex="1">
          <mxGeometry x="30" width="150" height="30" as="geometry">
            <mxRectangle width="150" height="30" as="alternateBounds" />
          </mxGeometry>
        </mxCell>
        <mxCell id="7VmttGygovowHh0-dZg9-174" value="" style="shape=tableRow;horizontal=0;startSize=0;swimlaneHead=0;swimlaneBody=0;fillColor=none;collapsible=0;dropTarget=0;points=[[0,0.5],[1,0.5]];portConstraint=eastwest;top=0;left=0;right=0;bottom=0;" parent="7VmttGygovowHh0-dZg9-167" vertex="1">
          <mxGeometry y="90" width="180" height="30" as="geometry" />
        </mxCell>
        <mxCell id="7VmttGygovowHh0-dZg9-175" value="" style="shape=partialRectangle;connectable=0;fillColor=none;top=0;left=0;bottom=0;right=0;editable=1;overflow=hidden;whiteSpace=wrap;html=1;" parent="7VmttGygovowHh0-dZg9-174" vertex="1">
          <mxGeometry width="30" height="30" as="geometry">
            <mxRectangle width="30" height="30" as="alternateBounds" />
          </mxGeometry>
        </mxCell>
        <mxCell id="7VmttGygovowHh0-dZg9-176" value="desk_iklan" style="shape=partialRectangle;connectable=0;fillColor=none;top=0;left=0;bottom=0;right=0;align=left;spacingLeft=6;overflow=hidden;whiteSpace=wrap;html=1;" parent="7VmttGygovowHh0-dZg9-174" vertex="1">
          <mxGeometry x="30" width="150" height="30" as="geometry">
            <mxRectangle width="150" height="30" as="alternateBounds" />
          </mxGeometry>
        </mxCell>
        <mxCell id="7VmttGygovowHh0-dZg9-177" value="" style="shape=tableRow;horizontal=0;startSize=0;swimlaneHead=0;swimlaneBody=0;fillColor=none;collapsible=0;dropTarget=0;points=[[0,0.5],[1,0.5]];portConstraint=eastwest;top=0;left=0;right=0;bottom=0;" parent="7VmttGygovowHh0-dZg9-167" vertex="1">
          <mxGeometry y="120" width="180" height="30" as="geometry" />
        </mxCell>
        <mxCell id="7VmttGygovowHh0-dZg9-178" value="" style="shape=partialRectangle;connectable=0;fillColor=none;top=0;left=0;bottom=0;right=0;editable=1;overflow=hidden;whiteSpace=wrap;html=1;" parent="7VmttGygovowHh0-dZg9-177" vertex="1">
          <mxGeometry width="30" height="30" as="geometry">
            <mxRectangle width="30" height="30" as="alternateBounds" />
          </mxGeometry>
        </mxCell>
        <mxCell id="7VmttGygovowHh0-dZg9-179" value="judul_iklan" style="shape=partialRectangle;connectable=0;fillColor=none;top=0;left=0;bottom=0;right=0;align=left;spacingLeft=6;overflow=hidden;whiteSpace=wrap;html=1;" parent="7VmttGygovowHh0-dZg9-177" vertex="1">
          <mxGeometry x="30" width="150" height="30" as="geometry">
            <mxRectangle width="150" height="30" as="alternateBounds" />
          </mxGeometry>
        </mxCell>
        <mxCell id="laMjHU5bCfDg13J4l6GV-1" value="property_iklan" style="shape=table;startSize=30;container=1;collapsible=1;childLayout=tableLayout;fixedRows=1;rowLines=0;fontStyle=1;align=center;resizeLast=1;html=1;" parent="1" vertex="1">
          <mxGeometry x="-571" y="1430" width="180" height="150" as="geometry" />
        </mxCell>
        <mxCell id="laMjHU5bCfDg13J4l6GV-2" value="" style="shape=tableRow;horizontal=0;startSize=0;swimlaneHead=0;swimlaneBody=0;fillColor=none;collapsible=0;dropTarget=0;points=[[0,0.5],[1,0.5]];portConstraint=eastwest;top=0;left=0;right=0;bottom=1;" parent="laMjHU5bCfDg13J4l6GV-1" vertex="1">
          <mxGeometry y="30" width="180" height="30" as="geometry" />
        </mxCell>
        <mxCell id="laMjHU5bCfDg13J4l6GV-3" value="PK" style="shape=partialRectangle;connectable=0;fillColor=none;top=0;left=0;bottom=0;right=0;fontStyle=1;overflow=hidden;whiteSpace=wrap;html=1;" parent="laMjHU5bCfDg13J4l6GV-2" vertex="1">
          <mxGeometry width="30" height="30" as="geometry">
            <mxRectangle width="30" height="30" as="alternateBounds" />
          </mxGeometry>
        </mxCell>
        <mxCell id="laMjHU5bCfDg13J4l6GV-4" value="property_iklan" style="shape=partialRectangle;connectable=0;fillColor=none;top=0;left=0;bottom=0;right=0;align=left;spacingLeft=6;fontStyle=5;overflow=hidden;whiteSpace=wrap;html=1;" parent="laMjHU5bCfDg13J4l6GV-2" vertex="1">
          <mxGeometry x="30" width="150" height="30" as="geometry">
            <mxRectangle width="150" height="30" as="alternateBounds" />
          </mxGeometry>
        </mxCell>
        <mxCell id="laMjHU5bCfDg13J4l6GV-5" value="" style="shape=tableRow;horizontal=0;startSize=0;swimlaneHead=0;swimlaneBody=0;fillColor=none;collapsible=0;dropTarget=0;points=[[0,0.5],[1,0.5]];portConstraint=eastwest;top=0;left=0;right=0;bottom=0;" parent="laMjHU5bCfDg13J4l6GV-1" vertex="1">
          <mxGeometry y="60" width="180" height="30" as="geometry" />
        </mxCell>
        <mxCell id="laMjHU5bCfDg13J4l6GV-6" value="&lt;font style=&quot;font-size: 10px;&quot;&gt;PK/FK&lt;/font&gt;" style="shape=partialRectangle;connectable=0;fillColor=none;top=0;left=0;bottom=0;right=0;editable=1;overflow=hidden;whiteSpace=wrap;html=1;" parent="laMjHU5bCfDg13J4l6GV-5" vertex="1">
          <mxGeometry width="30" height="30" as="geometry">
            <mxRectangle width="30" height="30" as="alternateBounds" />
          </mxGeometry>
        </mxCell>
        <mxCell id="laMjHU5bCfDg13J4l6GV-7" value="ID_iklan" style="shape=partialRectangle;connectable=0;fillColor=none;top=0;left=0;bottom=0;right=0;align=left;spacingLeft=6;overflow=hidden;whiteSpace=wrap;html=1;" parent="laMjHU5bCfDg13J4l6GV-5" vertex="1">
          <mxGeometry x="30" width="150" height="30" as="geometry">
            <mxRectangle width="150" height="30" as="alternateBounds" />
          </mxGeometry>
        </mxCell>
        <mxCell id="laMjHU5bCfDg13J4l6GV-8" value="" style="shape=tableRow;horizontal=0;startSize=0;swimlaneHead=0;swimlaneBody=0;fillColor=none;collapsible=0;dropTarget=0;points=[[0,0.5],[1,0.5]];portConstraint=eastwest;top=0;left=0;right=0;bottom=0;" parent="laMjHU5bCfDg13J4l6GV-1" vertex="1">
          <mxGeometry y="90" width="180" height="30" as="geometry" />
        </mxCell>
        <mxCell id="laMjHU5bCfDg13J4l6GV-9" value="FK" style="shape=partialRectangle;connectable=0;fillColor=none;top=0;left=0;bottom=0;right=0;editable=1;overflow=hidden;whiteSpace=wrap;html=1;" parent="laMjHU5bCfDg13J4l6GV-8" vertex="1">
          <mxGeometry width="30" height="30" as="geometry">
            <mxRectangle width="30" height="30" as="alternateBounds" />
          </mxGeometry>
        </mxCell>
        <mxCell id="laMjHU5bCfDg13J4l6GV-10" value="ID_property" style="shape=partialRectangle;connectable=0;fillColor=none;top=0;left=0;bottom=0;right=0;align=left;spacingLeft=6;overflow=hidden;whiteSpace=wrap;html=1;" parent="laMjHU5bCfDg13J4l6GV-8" vertex="1">
          <mxGeometry x="30" width="150" height="30" as="geometry">
            <mxRectangle width="150" height="30" as="alternateBounds" />
          </mxGeometry>
        </mxCell>
        <mxCell id="laMjHU5bCfDg13J4l6GV-11" value="" style="shape=tableRow;horizontal=0;startSize=0;swimlaneHead=0;swimlaneBody=0;fillColor=none;collapsible=0;dropTarget=0;points=[[0,0.5],[1,0.5]];portConstraint=eastwest;top=0;left=0;right=0;bottom=0;" parent="laMjHU5bCfDg13J4l6GV-1" vertex="1">
          <mxGeometry y="120" width="180" height="30" as="geometry" />
        </mxCell>
        <mxCell id="laMjHU5bCfDg13J4l6GV-12" value="" style="shape=partialRectangle;connectable=0;fillColor=none;top=0;left=0;bottom=0;right=0;editable=1;overflow=hidden;whiteSpace=wrap;html=1;" parent="laMjHU5bCfDg13J4l6GV-11" vertex="1">
          <mxGeometry width="30" height="30" as="geometry">
            <mxRectangle width="30" height="30" as="alternateBounds" />
          </mxGeometry>
        </mxCell>
        <mxCell id="laMjHU5bCfDg13J4l6GV-13" value="" style="shape=partialRectangle;connectable=0;fillColor=none;top=0;left=0;bottom=0;right=0;align=left;spacingLeft=6;overflow=hidden;whiteSpace=wrap;html=1;" parent="laMjHU5bCfDg13J4l6GV-11" vertex="1">
          <mxGeometry x="30" width="150" height="30" as="geometry">
            <mxRectangle width="150" height="30" as="alternateBounds" />
          </mxGeometry>
        </mxCell>
        <mxCell id="laMjHU5bCfDg13J4l6GV-14" value="jaminan" style="shape=table;startSize=30;container=1;collapsible=1;childLayout=tableLayout;fixedRows=1;rowLines=0;fontStyle=1;align=center;resizeLast=1;html=1;" parent="1" vertex="1">
          <mxGeometry x="117" y="803" width="180" height="187" as="geometry">
            <mxRectangle x="120" y="950" width="90" height="30" as="alternateBounds" />
          </mxGeometry>
        </mxCell>
        <mxCell id="laMjHU5bCfDg13J4l6GV-15" value="" style="shape=tableRow;horizontal=0;startSize=0;swimlaneHead=0;swimlaneBody=0;fillColor=none;collapsible=0;dropTarget=0;points=[[0,0.5],[1,0.5]];portConstraint=eastwest;top=0;left=0;right=0;bottom=1;" parent="laMjHU5bCfDg13J4l6GV-14" vertex="1">
          <mxGeometry y="30" width="180" height="30" as="geometry" />
        </mxCell>
        <mxCell id="laMjHU5bCfDg13J4l6GV-16" value="PK" style="shape=partialRectangle;connectable=0;fillColor=none;top=0;left=0;bottom=0;right=0;fontStyle=1;overflow=hidden;whiteSpace=wrap;html=1;" parent="laMjHU5bCfDg13J4l6GV-15" vertex="1">
          <mxGeometry width="30" height="30" as="geometry">
            <mxRectangle width="30" height="30" as="alternateBounds" />
          </mxGeometry>
        </mxCell>
        <mxCell id="laMjHU5bCfDg13J4l6GV-17" value="no_seri" style="shape=partialRectangle;connectable=0;fillColor=none;top=0;left=0;bottom=0;right=0;align=left;spacingLeft=6;fontStyle=5;overflow=hidden;whiteSpace=wrap;html=1;" parent="laMjHU5bCfDg13J4l6GV-15" vertex="1">
          <mxGeometry x="30" width="150" height="30" as="geometry">
            <mxRectangle width="150" height="30" as="alternateBounds" />
          </mxGeometry>
        </mxCell>
        <mxCell id="laMjHU5bCfDg13J4l6GV-18" value="" style="shape=tableRow;horizontal=0;startSize=0;swimlaneHead=0;swimlaneBody=0;fillColor=none;collapsible=0;dropTarget=0;points=[[0,0.5],[1,0.5]];portConstraint=eastwest;top=0;left=0;right=0;bottom=0;" parent="laMjHU5bCfDg13J4l6GV-14" vertex="1">
          <mxGeometry y="60" width="180" height="30" as="geometry" />
        </mxCell>
        <mxCell id="laMjHU5bCfDg13J4l6GV-19" value="" style="shape=partialRectangle;connectable=0;fillColor=none;top=0;left=0;bottom=0;right=0;editable=1;overflow=hidden;whiteSpace=wrap;html=1;" parent="laMjHU5bCfDg13J4l6GV-18" vertex="1">
          <mxGeometry width="30" height="30" as="geometry">
            <mxRectangle width="30" height="30" as="alternateBounds" />
          </mxGeometry>
        </mxCell>
        <mxCell id="laMjHU5bCfDg13J4l6GV-20" value="NIK" style="shape=partialRectangle;connectable=0;fillColor=none;top=0;left=0;bottom=0;right=0;align=left;spacingLeft=6;overflow=hidden;whiteSpace=wrap;html=1;" parent="laMjHU5bCfDg13J4l6GV-18" vertex="1">
          <mxGeometry x="30" width="150" height="30" as="geometry">
            <mxRectangle width="150" height="30" as="alternateBounds" />
          </mxGeometry>
        </mxCell>
        <mxCell id="laMjHU5bCfDg13J4l6GV-21" value="" style="shape=tableRow;horizontal=0;startSize=0;swimlaneHead=0;swimlaneBody=0;fillColor=none;collapsible=0;dropTarget=0;points=[[0,0.5],[1,0.5]];portConstraint=eastwest;top=0;left=0;right=0;bottom=0;" parent="laMjHU5bCfDg13J4l6GV-14" vertex="1">
          <mxGeometry y="90" width="180" height="30" as="geometry" />
        </mxCell>
        <mxCell id="laMjHU5bCfDg13J4l6GV-22" value="" style="shape=partialRectangle;connectable=0;fillColor=none;top=0;left=0;bottom=0;right=0;editable=1;overflow=hidden;whiteSpace=wrap;html=1;" parent="laMjHU5bCfDg13J4l6GV-21" vertex="1">
          <mxGeometry width="30" height="30" as="geometry">
            <mxRectangle width="30" height="30" as="alternateBounds" />
          </mxGeometry>
        </mxCell>
        <mxCell id="laMjHU5bCfDg13J4l6GV-23" value="harga_taksir" style="shape=partialRectangle;connectable=0;fillColor=none;top=0;left=0;bottom=0;right=0;align=left;spacingLeft=6;overflow=hidden;whiteSpace=wrap;html=1;" parent="laMjHU5bCfDg13J4l6GV-21" vertex="1">
          <mxGeometry x="30" width="150" height="30" as="geometry">
            <mxRectangle width="150" height="30" as="alternateBounds" />
          </mxGeometry>
        </mxCell>
        <mxCell id="laMjHU5bCfDg13J4l6GV-24" value="" style="shape=tableRow;horizontal=0;startSize=0;swimlaneHead=0;swimlaneBody=0;fillColor=none;collapsible=0;dropTarget=0;points=[[0,0.5],[1,0.5]];portConstraint=eastwest;top=0;left=0;right=0;bottom=0;" parent="laMjHU5bCfDg13J4l6GV-14" vertex="1">
          <mxGeometry y="120" width="180" height="30" as="geometry" />
        </mxCell>
        <mxCell id="laMjHU5bCfDg13J4l6GV-25" value="" style="shape=partialRectangle;connectable=0;fillColor=none;top=0;left=0;bottom=0;right=0;editable=1;overflow=hidden;whiteSpace=wrap;html=1;" parent="laMjHU5bCfDg13J4l6GV-24" vertex="1">
          <mxGeometry width="30" height="30" as="geometry">
            <mxRectangle width="30" height="30" as="alternateBounds" />
          </mxGeometry>
        </mxCell>
        <mxCell id="laMjHU5bCfDg13J4l6GV-26" value="nama_barang" style="shape=partialRectangle;connectable=0;fillColor=none;top=0;left=0;bottom=0;right=0;align=left;spacingLeft=6;overflow=hidden;whiteSpace=wrap;html=1;" parent="laMjHU5bCfDg13J4l6GV-24" vertex="1">
          <mxGeometry x="30" width="150" height="30" as="geometry">
            <mxRectangle width="150" height="30" as="alternateBounds" />
          </mxGeometry>
        </mxCell>
        <mxCell id="laMjHU5bCfDg13J4l6GV-63" value="media_cetak" style="shape=table;startSize=30;container=1;collapsible=1;childLayout=tableLayout;fixedRows=1;rowLines=0;fontStyle=1;align=center;resizeLast=1;html=1;" parent="1" vertex="1">
          <mxGeometry x="253" y="1636" width="180" height="150" as="geometry" />
        </mxCell>
        <mxCell id="laMjHU5bCfDg13J4l6GV-64" value="" style="shape=tableRow;horizontal=0;startSize=0;swimlaneHead=0;swimlaneBody=0;fillColor=none;collapsible=0;dropTarget=0;points=[[0,0.5],[1,0.5]];portConstraint=eastwest;top=0;left=0;right=0;bottom=1;" parent="laMjHU5bCfDg13J4l6GV-63" vertex="1">
          <mxGeometry y="30" width="180" height="30" as="geometry" />
        </mxCell>
        <mxCell id="laMjHU5bCfDg13J4l6GV-65" value="PK" style="shape=partialRectangle;connectable=0;fillColor=none;top=0;left=0;bottom=0;right=0;fontStyle=1;overflow=hidden;whiteSpace=wrap;html=1;" parent="laMjHU5bCfDg13J4l6GV-64" vertex="1">
          <mxGeometry width="30" height="30" as="geometry">
            <mxRectangle width="30" height="30" as="alternateBounds" />
          </mxGeometry>
        </mxCell>
        <mxCell id="laMjHU5bCfDg13J4l6GV-66" value="ID_iklan" style="shape=partialRectangle;connectable=0;fillColor=none;top=0;left=0;bottom=0;right=0;align=left;spacingLeft=6;fontStyle=5;overflow=hidden;whiteSpace=wrap;html=1;" parent="laMjHU5bCfDg13J4l6GV-64" vertex="1">
          <mxGeometry x="30" width="150" height="30" as="geometry">
            <mxRectangle width="150" height="30" as="alternateBounds" />
          </mxGeometry>
        </mxCell>
        <mxCell id="laMjHU5bCfDg13J4l6GV-67" value="" style="shape=tableRow;horizontal=0;startSize=0;swimlaneHead=0;swimlaneBody=0;fillColor=none;collapsible=0;dropTarget=0;points=[[0,0.5],[1,0.5]];portConstraint=eastwest;top=0;left=0;right=0;bottom=0;" parent="laMjHU5bCfDg13J4l6GV-63" vertex="1">
          <mxGeometry y="60" width="180" height="30" as="geometry" />
        </mxCell>
        <mxCell id="laMjHU5bCfDg13J4l6GV-68" value="" style="shape=partialRectangle;connectable=0;fillColor=none;top=0;left=0;bottom=0;right=0;editable=1;overflow=hidden;whiteSpace=wrap;html=1;" parent="laMjHU5bCfDg13J4l6GV-67" vertex="1">
          <mxGeometry width="30" height="30" as="geometry">
            <mxRectangle width="30" height="30" as="alternateBounds" />
          </mxGeometry>
        </mxCell>
        <mxCell id="laMjHU5bCfDg13J4l6GV-69" value="halaman" style="shape=partialRectangle;connectable=0;fillColor=none;top=0;left=0;bottom=0;right=0;align=left;spacingLeft=6;overflow=hidden;whiteSpace=wrap;html=1;" parent="laMjHU5bCfDg13J4l6GV-67" vertex="1">
          <mxGeometry x="30" width="150" height="30" as="geometry">
            <mxRectangle width="150" height="30" as="alternateBounds" />
          </mxGeometry>
        </mxCell>
        <mxCell id="laMjHU5bCfDg13J4l6GV-70" value="" style="shape=tableRow;horizontal=0;startSize=0;swimlaneHead=0;swimlaneBody=0;fillColor=none;collapsible=0;dropTarget=0;points=[[0,0.5],[1,0.5]];portConstraint=eastwest;top=0;left=0;right=0;bottom=0;" parent="laMjHU5bCfDg13J4l6GV-63" vertex="1">
          <mxGeometry y="90" width="180" height="30" as="geometry" />
        </mxCell>
        <mxCell id="laMjHU5bCfDg13J4l6GV-71" value="" style="shape=partialRectangle;connectable=0;fillColor=none;top=0;left=0;bottom=0;right=0;editable=1;overflow=hidden;whiteSpace=wrap;html=1;" parent="laMjHU5bCfDg13J4l6GV-70" vertex="1">
          <mxGeometry width="30" height="30" as="geometry">
            <mxRectangle width="30" height="30" as="alternateBounds" />
          </mxGeometry>
        </mxCell>
        <mxCell id="laMjHU5bCfDg13J4l6GV-72" value="jenis_cetak" style="shape=partialRectangle;connectable=0;fillColor=none;top=0;left=0;bottom=0;right=0;align=left;spacingLeft=6;overflow=hidden;whiteSpace=wrap;html=1;" parent="laMjHU5bCfDg13J4l6GV-70" vertex="1">
          <mxGeometry x="30" width="150" height="30" as="geometry">
            <mxRectangle width="150" height="30" as="alternateBounds" />
          </mxGeometry>
        </mxCell>
        <mxCell id="laMjHU5bCfDg13J4l6GV-73" value="" style="shape=tableRow;horizontal=0;startSize=0;swimlaneHead=0;swimlaneBody=0;fillColor=none;collapsible=0;dropTarget=0;points=[[0,0.5],[1,0.5]];portConstraint=eastwest;top=0;left=0;right=0;bottom=0;" parent="laMjHU5bCfDg13J4l6GV-63" vertex="1">
          <mxGeometry y="120" width="180" height="30" as="geometry" />
        </mxCell>
        <mxCell id="laMjHU5bCfDg13J4l6GV-74" value="" style="shape=partialRectangle;connectable=0;fillColor=none;top=0;left=0;bottom=0;right=0;editable=1;overflow=hidden;whiteSpace=wrap;html=1;" parent="laMjHU5bCfDg13J4l6GV-73" vertex="1">
          <mxGeometry width="30" height="30" as="geometry">
            <mxRectangle width="30" height="30" as="alternateBounds" />
          </mxGeometry>
        </mxCell>
        <mxCell id="laMjHU5bCfDg13J4l6GV-75" value="" style="shape=partialRectangle;connectable=0;fillColor=none;top=0;left=0;bottom=0;right=0;align=left;spacingLeft=6;overflow=hidden;whiteSpace=wrap;html=1;" parent="laMjHU5bCfDg13J4l6GV-73" vertex="1">
          <mxGeometry x="30" width="150" height="30" as="geometry">
            <mxRectangle width="150" height="30" as="alternateBounds" />
          </mxGeometry>
        </mxCell>
        <mxCell id="laMjHU5bCfDg13J4l6GV-76" value="TV" style="shape=table;startSize=30;container=1;collapsible=1;childLayout=tableLayout;fixedRows=1;rowLines=0;fontStyle=1;align=center;resizeLast=1;html=1;" parent="1" vertex="1">
          <mxGeometry x="73" y="1636" width="180" height="150" as="geometry" />
        </mxCell>
        <mxCell id="laMjHU5bCfDg13J4l6GV-77" value="" style="shape=tableRow;horizontal=0;startSize=0;swimlaneHead=0;swimlaneBody=0;fillColor=none;collapsible=0;dropTarget=0;points=[[0,0.5],[1,0.5]];portConstraint=eastwest;top=0;left=0;right=0;bottom=1;" parent="laMjHU5bCfDg13J4l6GV-76" vertex="1">
          <mxGeometry y="30" width="180" height="30" as="geometry" />
        </mxCell>
        <mxCell id="laMjHU5bCfDg13J4l6GV-78" value="PK" style="shape=partialRectangle;connectable=0;fillColor=none;top=0;left=0;bottom=0;right=0;fontStyle=1;overflow=hidden;whiteSpace=wrap;html=1;" parent="laMjHU5bCfDg13J4l6GV-77" vertex="1">
          <mxGeometry width="30" height="30" as="geometry">
            <mxRectangle width="30" height="30" as="alternateBounds" />
          </mxGeometry>
        </mxCell>
        <mxCell id="laMjHU5bCfDg13J4l6GV-79" value="ID_iklan" style="shape=partialRectangle;connectable=0;fillColor=none;top=0;left=0;bottom=0;right=0;align=left;spacingLeft=6;fontStyle=5;overflow=hidden;whiteSpace=wrap;html=1;" parent="laMjHU5bCfDg13J4l6GV-77" vertex="1">
          <mxGeometry x="30" width="150" height="30" as="geometry">
            <mxRectangle width="150" height="30" as="alternateBounds" />
          </mxGeometry>
        </mxCell>
        <mxCell id="laMjHU5bCfDg13J4l6GV-80" value="" style="shape=tableRow;horizontal=0;startSize=0;swimlaneHead=0;swimlaneBody=0;fillColor=none;collapsible=0;dropTarget=0;points=[[0,0.5],[1,0.5]];portConstraint=eastwest;top=0;left=0;right=0;bottom=0;" parent="laMjHU5bCfDg13J4l6GV-76" vertex="1">
          <mxGeometry y="60" width="180" height="30" as="geometry" />
        </mxCell>
        <mxCell id="laMjHU5bCfDg13J4l6GV-81" value="" style="shape=partialRectangle;connectable=0;fillColor=none;top=0;left=0;bottom=0;right=0;editable=1;overflow=hidden;whiteSpace=wrap;html=1;" parent="laMjHU5bCfDg13J4l6GV-80" vertex="1">
          <mxGeometry width="30" height="30" as="geometry">
            <mxRectangle width="30" height="30" as="alternateBounds" />
          </mxGeometry>
        </mxCell>
        <mxCell id="laMjHU5bCfDg13J4l6GV-82" value="durasi_vidio" style="shape=partialRectangle;connectable=0;fillColor=none;top=0;left=0;bottom=0;right=0;align=left;spacingLeft=6;overflow=hidden;whiteSpace=wrap;html=1;" parent="laMjHU5bCfDg13J4l6GV-80" vertex="1">
          <mxGeometry x="30" width="150" height="30" as="geometry">
            <mxRectangle width="150" height="30" as="alternateBounds" />
          </mxGeometry>
        </mxCell>
        <mxCell id="laMjHU5bCfDg13J4l6GV-83" value="" style="shape=tableRow;horizontal=0;startSize=0;swimlaneHead=0;swimlaneBody=0;fillColor=none;collapsible=0;dropTarget=0;points=[[0,0.5],[1,0.5]];portConstraint=eastwest;top=0;left=0;right=0;bottom=0;" parent="laMjHU5bCfDg13J4l6GV-76" vertex="1">
          <mxGeometry y="90" width="180" height="30" as="geometry" />
        </mxCell>
        <mxCell id="laMjHU5bCfDg13J4l6GV-84" value="" style="shape=partialRectangle;connectable=0;fillColor=none;top=0;left=0;bottom=0;right=0;editable=1;overflow=hidden;whiteSpace=wrap;html=1;" parent="laMjHU5bCfDg13J4l6GV-83" vertex="1">
          <mxGeometry width="30" height="30" as="geometry">
            <mxRectangle width="30" height="30" as="alternateBounds" />
          </mxGeometry>
        </mxCell>
        <mxCell id="laMjHU5bCfDg13J4l6GV-85" value="jam_tayang" style="shape=partialRectangle;connectable=0;fillColor=none;top=0;left=0;bottom=0;right=0;align=left;spacingLeft=6;overflow=hidden;whiteSpace=wrap;html=1;" parent="laMjHU5bCfDg13J4l6GV-83" vertex="1">
          <mxGeometry x="30" width="150" height="30" as="geometry">
            <mxRectangle width="150" height="30" as="alternateBounds" />
          </mxGeometry>
        </mxCell>
        <mxCell id="laMjHU5bCfDg13J4l6GV-86" value="" style="shape=tableRow;horizontal=0;startSize=0;swimlaneHead=0;swimlaneBody=0;fillColor=none;collapsible=0;dropTarget=0;points=[[0,0.5],[1,0.5]];portConstraint=eastwest;top=0;left=0;right=0;bottom=0;" parent="laMjHU5bCfDg13J4l6GV-76" vertex="1">
          <mxGeometry y="120" width="180" height="30" as="geometry" />
        </mxCell>
        <mxCell id="laMjHU5bCfDg13J4l6GV-87" value="" style="shape=partialRectangle;connectable=0;fillColor=none;top=0;left=0;bottom=0;right=0;editable=1;overflow=hidden;whiteSpace=wrap;html=1;" parent="laMjHU5bCfDg13J4l6GV-86" vertex="1">
          <mxGeometry width="30" height="30" as="geometry">
            <mxRectangle width="30" height="30" as="alternateBounds" />
          </mxGeometry>
        </mxCell>
        <mxCell id="laMjHU5bCfDg13J4l6GV-88" value="channel" style="shape=partialRectangle;connectable=0;fillColor=none;top=0;left=0;bottom=0;right=0;align=left;spacingLeft=6;overflow=hidden;whiteSpace=wrap;html=1;" parent="laMjHU5bCfDg13J4l6GV-86" vertex="1">
          <mxGeometry x="30" width="150" height="30" as="geometry">
            <mxRectangle width="150" height="30" as="alternateBounds" />
          </mxGeometry>
        </mxCell>
        <mxCell id="h25AfmUzgiBOwUJY5m8m-4" value="" style="endArrow=none;html=1;rounded=0;" parent="1" edge="1">
          <mxGeometry width="50" height="50" relative="1" as="geometry">
            <mxPoint x="-601" y="1541" as="sourcePoint" />
            <mxPoint x="-601" y="1040" as="targetPoint" />
            <Array as="points">
              <mxPoint x="-601" y="1200" />
              <mxPoint x="-570" y="1160" />
              <mxPoint x="-600" y="1120" />
            </Array>
          </mxGeometry>
        </mxCell>
        <mxCell id="h25AfmUzgiBOwUJY5m8m-5" value="" style="endArrow=none;html=1;rounded=0;" parent="1" edge="1">
          <mxGeometry width="50" height="50" relative="1" as="geometry">
            <mxPoint x="-600" y="1540" as="sourcePoint" />
            <mxPoint x="-571" y="1540" as="targetPoint" />
          </mxGeometry>
        </mxCell>
        <mxCell id="h25AfmUzgiBOwUJY5m8m-6" value="" style="endArrow=none;html=1;rounded=0;" parent="1" edge="1">
          <mxGeometry width="50" height="50" relative="1" as="geometry">
            <mxPoint x="-391" y="1504.5" as="sourcePoint" />
            <mxPoint x="-340" y="1505" as="targetPoint" />
          </mxGeometry>
        </mxCell>
        <mxCell id="h25AfmUzgiBOwUJY5m8m-7" value="" style="endArrow=none;html=1;rounded=0;" parent="1" edge="1">
          <mxGeometry width="50" height="50" relative="1" as="geometry">
            <mxPoint x="-340" y="1680" as="sourcePoint" />
            <mxPoint x="-340" y="1505" as="targetPoint" />
          </mxGeometry>
        </mxCell>
        <mxCell id="2sBCA7uiXcgq0fx1kcWA-5" value="FK" style="text;html=1;align=center;verticalAlign=middle;resizable=0;points=[];autosize=1;strokeColor=none;fillColor=none;" parent="1" vertex="1">
          <mxGeometry x="112" y="863" width="40" height="30" as="geometry" />
        </mxCell>
        <mxCell id="2sBCA7uiXcgq0fx1kcWA-6" value="" style="endArrow=none;html=1;rounded=0;" parent="1" edge="1">
          <mxGeometry width="50" height="50" relative="1" as="geometry">
            <mxPoint x="147" y="990" as="sourcePoint" />
            <mxPoint x="147" y="938" as="targetPoint" />
          </mxGeometry>
        </mxCell>
        <mxCell id="2sBCA7uiXcgq0fx1kcWA-7" value="jenis_barang" style="text;html=1;align=center;verticalAlign=middle;resizable=0;points=[];autosize=1;strokeColor=none;fillColor=none;" parent="1" vertex="1">
          <mxGeometry x="145" y="954" width="90" height="30" as="geometry" />
        </mxCell>
        <mxCell id="2sBCA7uiXcgq0fx1kcWA-8" value="" style="endArrow=none;html=1;rounded=0;exitX=1;exitY=0.5;exitDx=0;exitDy=0;" parent="1" edge="1">
          <mxGeometry width="50" height="50" relative="1" as="geometry">
            <mxPoint x="-50" y="714" as="sourcePoint" />
            <mxPoint x="120" y="880" as="targetPoint" />
            <Array as="points">
              <mxPoint x="80" y="714" />
              <mxPoint x="80" y="880" />
            </Array>
          </mxGeometry>
        </mxCell>
        <mxCell id="2sBCA7uiXcgq0fx1kcWA-24" value="kantor_cabang" style="shape=table;startSize=30;container=1;collapsible=1;childLayout=tableLayout;fixedRows=1;rowLines=0;fontStyle=1;align=center;resizeLast=1;html=1;" parent="1" vertex="1">
          <mxGeometry x="-520" y="680" width="180" height="180" as="geometry">
            <mxRectangle x="120" y="950" width="90" height="30" as="alternateBounds" />
          </mxGeometry>
        </mxCell>
        <mxCell id="2sBCA7uiXcgq0fx1kcWA-25" value="" style="shape=tableRow;horizontal=0;startSize=0;swimlaneHead=0;swimlaneBody=0;fillColor=none;collapsible=0;dropTarget=0;points=[[0,0.5],[1,0.5]];portConstraint=eastwest;top=0;left=0;right=0;bottom=1;" parent="2sBCA7uiXcgq0fx1kcWA-24" vertex="1">
          <mxGeometry y="30" width="180" height="30" as="geometry" />
        </mxCell>
        <mxCell id="2sBCA7uiXcgq0fx1kcWA-26" value="PK" style="shape=partialRectangle;connectable=0;fillColor=none;top=0;left=0;bottom=0;right=0;fontStyle=1;overflow=hidden;whiteSpace=wrap;html=1;" parent="2sBCA7uiXcgq0fx1kcWA-25" vertex="1">
          <mxGeometry width="30" height="30" as="geometry">
            <mxRectangle width="30" height="30" as="alternateBounds" />
          </mxGeometry>
        </mxCell>
        <mxCell id="2sBCA7uiXcgq0fx1kcWA-27" value="ID_cabang" style="shape=partialRectangle;connectable=0;fillColor=none;top=0;left=0;bottom=0;right=0;align=left;spacingLeft=6;fontStyle=5;overflow=hidden;whiteSpace=wrap;html=1;" parent="2sBCA7uiXcgq0fx1kcWA-25" vertex="1">
          <mxGeometry x="30" width="150" height="30" as="geometry">
            <mxRectangle width="150" height="30" as="alternateBounds" />
          </mxGeometry>
        </mxCell>
        <mxCell id="2sBCA7uiXcgq0fx1kcWA-28" value="" style="shape=tableRow;horizontal=0;startSize=0;swimlaneHead=0;swimlaneBody=0;fillColor=none;collapsible=0;dropTarget=0;points=[[0,0.5],[1,0.5]];portConstraint=eastwest;top=0;left=0;right=0;bottom=0;" parent="2sBCA7uiXcgq0fx1kcWA-24" vertex="1">
          <mxGeometry y="60" width="180" height="30" as="geometry" />
        </mxCell>
        <mxCell id="2sBCA7uiXcgq0fx1kcWA-29" value="" style="shape=partialRectangle;connectable=0;fillColor=none;top=0;left=0;bottom=0;right=0;editable=1;overflow=hidden;whiteSpace=wrap;html=1;" parent="2sBCA7uiXcgq0fx1kcWA-28" vertex="1">
          <mxGeometry width="30" height="30" as="geometry">
            <mxRectangle width="30" height="30" as="alternateBounds" />
          </mxGeometry>
        </mxCell>
        <mxCell id="2sBCA7uiXcgq0fx1kcWA-30" value="nama" style="shape=partialRectangle;connectable=0;fillColor=none;top=0;left=0;bottom=0;right=0;align=left;spacingLeft=6;overflow=hidden;whiteSpace=wrap;html=1;" parent="2sBCA7uiXcgq0fx1kcWA-28" vertex="1">
          <mxGeometry x="30" width="150" height="30" as="geometry">
            <mxRectangle width="150" height="30" as="alternateBounds" />
          </mxGeometry>
        </mxCell>
        <mxCell id="2sBCA7uiXcgq0fx1kcWA-31" value="" style="shape=tableRow;horizontal=0;startSize=0;swimlaneHead=0;swimlaneBody=0;fillColor=none;collapsible=0;dropTarget=0;points=[[0,0.5],[1,0.5]];portConstraint=eastwest;top=0;left=0;right=0;bottom=0;" parent="2sBCA7uiXcgq0fx1kcWA-24" vertex="1">
          <mxGeometry y="90" width="180" height="30" as="geometry" />
        </mxCell>
        <mxCell id="2sBCA7uiXcgq0fx1kcWA-32" value="" style="shape=partialRectangle;connectable=0;fillColor=none;top=0;left=0;bottom=0;right=0;editable=1;overflow=hidden;whiteSpace=wrap;html=1;" parent="2sBCA7uiXcgq0fx1kcWA-31" vertex="1">
          <mxGeometry width="30" height="30" as="geometry">
            <mxRectangle width="30" height="30" as="alternateBounds" />
          </mxGeometry>
        </mxCell>
        <mxCell id="2sBCA7uiXcgq0fx1kcWA-33" value="jabatan" style="shape=partialRectangle;connectable=0;fillColor=none;top=0;left=0;bottom=0;right=0;align=left;spacingLeft=6;overflow=hidden;whiteSpace=wrap;html=1;" parent="2sBCA7uiXcgq0fx1kcWA-31" vertex="1">
          <mxGeometry x="30" width="150" height="30" as="geometry">
            <mxRectangle width="150" height="30" as="alternateBounds" />
          </mxGeometry>
        </mxCell>
        <mxCell id="2sBCA7uiXcgq0fx1kcWA-34" value="" style="shape=tableRow;horizontal=0;startSize=0;swimlaneHead=0;swimlaneBody=0;fillColor=none;collapsible=0;dropTarget=0;points=[[0,0.5],[1,0.5]];portConstraint=eastwest;top=0;left=0;right=0;bottom=0;" parent="2sBCA7uiXcgq0fx1kcWA-24" vertex="1">
          <mxGeometry y="120" width="180" height="30" as="geometry" />
        </mxCell>
        <mxCell id="2sBCA7uiXcgq0fx1kcWA-35" value="" style="shape=partialRectangle;connectable=0;fillColor=none;top=0;left=0;bottom=0;right=0;editable=1;overflow=hidden;whiteSpace=wrap;html=1;" parent="2sBCA7uiXcgq0fx1kcWA-34" vertex="1">
          <mxGeometry width="30" height="30" as="geometry">
            <mxRectangle width="30" height="30" as="alternateBounds" />
          </mxGeometry>
        </mxCell>
        <mxCell id="2sBCA7uiXcgq0fx1kcWA-36" value="lama_kerja" style="shape=partialRectangle;connectable=0;fillColor=none;top=0;left=0;bottom=0;right=0;align=left;spacingLeft=6;overflow=hidden;whiteSpace=wrap;html=1;" parent="2sBCA7uiXcgq0fx1kcWA-34" vertex="1">
          <mxGeometry x="30" width="150" height="30" as="geometry">
            <mxRectangle width="150" height="30" as="alternateBounds" />
          </mxGeometry>
        </mxCell>
        <mxCell id="2sBCA7uiXcgq0fx1kcWA-37" value="" style="endArrow=none;html=1;rounded=0;" parent="1" edge="1">
          <mxGeometry width="50" height="50" relative="1" as="geometry">
            <mxPoint x="-490" y="860" as="sourcePoint" />
            <mxPoint x="-490" y="830" as="targetPoint" />
          </mxGeometry>
        </mxCell>
        <mxCell id="2sBCA7uiXcgq0fx1kcWA-38" value="FK" style="text;html=1;align=center;verticalAlign=middle;resizable=0;points=[];autosize=1;strokeColor=none;fillColor=none;" parent="1" vertex="1">
          <mxGeometry x="-526" y="825" width="40" height="30" as="geometry" />
        </mxCell>
        <mxCell id="2sBCA7uiXcgq0fx1kcWA-39" value="ID_manager" style="text;html=1;align=center;verticalAlign=middle;resizable=0;points=[];autosize=1;strokeColor=none;fillColor=none;" parent="1" vertex="1">
          <mxGeometry x="-507" y="826" width="90" height="30" as="geometry" />
        </mxCell>
        <mxCell id="2sBCA7uiXcgq0fx1kcWA-40" value="" style="endArrow=none;html=1;rounded=0;" parent="1" edge="1">
          <mxGeometry width="50" height="50" relative="1" as="geometry">
            <mxPoint x="-680" y="723" as="sourcePoint" />
            <mxPoint x="-600" y="723" as="targetPoint" />
          </mxGeometry>
        </mxCell>
        <mxCell id="2sBCA7uiXcgq0fx1kcWA-41" value="" style="endArrow=none;html=1;rounded=0;" parent="1" edge="1">
          <mxGeometry width="50" height="50" relative="1" as="geometry">
            <mxPoint x="-600" y="840" as="sourcePoint" />
            <mxPoint x="-600" y="720" as="targetPoint" />
          </mxGeometry>
        </mxCell>
        <mxCell id="2sBCA7uiXcgq0fx1kcWA-42" value="" style="endArrow=none;html=1;rounded=0;" parent="1" edge="1">
          <mxGeometry width="50" height="50" relative="1" as="geometry">
            <mxPoint x="-600" y="839.5" as="sourcePoint" />
            <mxPoint x="-520" y="839.5" as="targetPoint" />
          </mxGeometry>
        </mxCell>
        <mxCell id="2sBCA7uiXcgq0fx1kcWA-100" value="" style="endArrow=none;html=1;rounded=0;" parent="1" edge="1">
          <mxGeometry width="50" height="50" relative="1" as="geometry">
            <mxPoint x="-340" y="721" as="sourcePoint" />
            <mxPoint x="-230" y="866" as="targetPoint" />
            <Array as="points">
              <mxPoint x="-270" y="720" />
              <mxPoint x="-270" y="866" />
            </Array>
          </mxGeometry>
        </mxCell>
        <mxCell id="2sBCA7uiXcgq0fx1kcWA-102" value="penyewaan" style="shape=table;startSize=30;container=1;collapsible=1;childLayout=tableLayout;fixedRows=1;rowLines=0;fontStyle=1;align=center;resizeLast=1;html=1;" parent="1" vertex="1">
          <mxGeometry x="127" y="1320" width="180" height="270" as="geometry">
            <mxRectangle x="120" y="950" width="90" height="30" as="alternateBounds" />
          </mxGeometry>
        </mxCell>
        <mxCell id="2sBCA7uiXcgq0fx1kcWA-103" value="" style="shape=tableRow;horizontal=0;startSize=0;swimlaneHead=0;swimlaneBody=0;fillColor=none;collapsible=0;dropTarget=0;points=[[0,0.5],[1,0.5]];portConstraint=eastwest;top=0;left=0;right=0;bottom=1;" parent="2sBCA7uiXcgq0fx1kcWA-102" vertex="1">
          <mxGeometry y="30" width="180" height="30" as="geometry" />
        </mxCell>
        <mxCell id="2sBCA7uiXcgq0fx1kcWA-104" value="PK" style="shape=partialRectangle;connectable=0;fillColor=none;top=0;left=0;bottom=0;right=0;fontStyle=1;overflow=hidden;whiteSpace=wrap;html=1;" parent="2sBCA7uiXcgq0fx1kcWA-103" vertex="1">
          <mxGeometry width="30" height="30" as="geometry">
            <mxRectangle width="30" height="30" as="alternateBounds" />
          </mxGeometry>
        </mxCell>
        <mxCell id="2sBCA7uiXcgq0fx1kcWA-105" value="kode_penyewaan" style="shape=partialRectangle;connectable=0;fillColor=none;top=0;left=0;bottom=0;right=0;align=left;spacingLeft=6;fontStyle=5;overflow=hidden;whiteSpace=wrap;html=1;" parent="2sBCA7uiXcgq0fx1kcWA-103" vertex="1">
          <mxGeometry x="30" width="150" height="30" as="geometry">
            <mxRectangle width="150" height="30" as="alternateBounds" />
          </mxGeometry>
        </mxCell>
        <mxCell id="2sBCA7uiXcgq0fx1kcWA-106" value="" style="shape=tableRow;horizontal=0;startSize=0;swimlaneHead=0;swimlaneBody=0;fillColor=none;collapsible=0;dropTarget=0;points=[[0,0.5],[1,0.5]];portConstraint=eastwest;top=0;left=0;right=0;bottom=0;" parent="2sBCA7uiXcgq0fx1kcWA-102" vertex="1">
          <mxGeometry y="60" width="180" height="30" as="geometry" />
        </mxCell>
        <mxCell id="2sBCA7uiXcgq0fx1kcWA-107" value="" style="shape=partialRectangle;connectable=0;fillColor=none;top=0;left=0;bottom=0;right=0;editable=1;overflow=hidden;whiteSpace=wrap;html=1;" parent="2sBCA7uiXcgq0fx1kcWA-106" vertex="1">
          <mxGeometry width="30" height="30" as="geometry">
            <mxRectangle width="30" height="30" as="alternateBounds" />
          </mxGeometry>
        </mxCell>
        <mxCell id="2sBCA7uiXcgq0fx1kcWA-108" value="tgl_sewa" style="shape=partialRectangle;connectable=0;fillColor=none;top=0;left=0;bottom=0;right=0;align=left;spacingLeft=6;overflow=hidden;whiteSpace=wrap;html=1;" parent="2sBCA7uiXcgq0fx1kcWA-106" vertex="1">
          <mxGeometry x="30" width="150" height="30" as="geometry">
            <mxRectangle width="150" height="30" as="alternateBounds" />
          </mxGeometry>
        </mxCell>
        <mxCell id="2sBCA7uiXcgq0fx1kcWA-109" value="" style="shape=tableRow;horizontal=0;startSize=0;swimlaneHead=0;swimlaneBody=0;fillColor=none;collapsible=0;dropTarget=0;points=[[0,0.5],[1,0.5]];portConstraint=eastwest;top=0;left=0;right=0;bottom=0;" parent="2sBCA7uiXcgq0fx1kcWA-102" vertex="1">
          <mxGeometry y="90" width="180" height="30" as="geometry" />
        </mxCell>
        <mxCell id="2sBCA7uiXcgq0fx1kcWA-110" value="" style="shape=partialRectangle;connectable=0;fillColor=none;top=0;left=0;bottom=0;right=0;editable=1;overflow=hidden;whiteSpace=wrap;html=1;" parent="2sBCA7uiXcgq0fx1kcWA-109" vertex="1">
          <mxGeometry width="30" height="30" as="geometry">
            <mxRectangle width="30" height="30" as="alternateBounds" />
          </mxGeometry>
        </mxCell>
        <mxCell id="2sBCA7uiXcgq0fx1kcWA-111" value="durasi_sewa" style="shape=partialRectangle;connectable=0;fillColor=none;top=0;left=0;bottom=0;right=0;align=left;spacingLeft=6;overflow=hidden;whiteSpace=wrap;html=1;" parent="2sBCA7uiXcgq0fx1kcWA-109" vertex="1">
          <mxGeometry x="30" width="150" height="30" as="geometry">
            <mxRectangle width="150" height="30" as="alternateBounds" />
          </mxGeometry>
        </mxCell>
        <mxCell id="2sBCA7uiXcgq0fx1kcWA-112" value="" style="shape=tableRow;horizontal=0;startSize=0;swimlaneHead=0;swimlaneBody=0;fillColor=none;collapsible=0;dropTarget=0;points=[[0,0.5],[1,0.5]];portConstraint=eastwest;top=0;left=0;right=0;bottom=0;" parent="2sBCA7uiXcgq0fx1kcWA-102" vertex="1">
          <mxGeometry y="120" width="180" height="30" as="geometry" />
        </mxCell>
        <mxCell id="2sBCA7uiXcgq0fx1kcWA-113" value="" style="shape=partialRectangle;connectable=0;fillColor=none;top=0;left=0;bottom=0;right=0;editable=1;overflow=hidden;whiteSpace=wrap;html=1;" parent="2sBCA7uiXcgq0fx1kcWA-112" vertex="1">
          <mxGeometry width="30" height="30" as="geometry">
            <mxRectangle width="30" height="30" as="alternateBounds" />
          </mxGeometry>
        </mxCell>
        <mxCell id="2sBCA7uiXcgq0fx1kcWA-114" value="total_harga" style="shape=partialRectangle;connectable=0;fillColor=none;top=0;left=0;bottom=0;right=0;align=left;spacingLeft=6;overflow=hidden;whiteSpace=wrap;html=1;" parent="2sBCA7uiXcgq0fx1kcWA-112" vertex="1">
          <mxGeometry x="30" width="150" height="30" as="geometry">
            <mxRectangle width="150" height="30" as="alternateBounds" />
          </mxGeometry>
        </mxCell>
        <mxCell id="2sBCA7uiXcgq0fx1kcWA-115" value="" style="endArrow=none;html=1;rounded=0;" parent="1" edge="1">
          <mxGeometry width="50" height="50" relative="1" as="geometry">
            <mxPoint x="157" y="1507" as="sourcePoint" />
            <mxPoint x="157" y="1455" as="targetPoint" />
          </mxGeometry>
        </mxCell>
        <mxCell id="2sBCA7uiXcgq0fx1kcWA-116" value="jenis_barang" style="text;html=1;align=center;verticalAlign=middle;resizable=0;points=[];autosize=1;strokeColor=none;fillColor=none;" parent="1" vertex="1">
          <mxGeometry x="155" y="1471" width="90" height="30" as="geometry" />
        </mxCell>
        <mxCell id="2sBCA7uiXcgq0fx1kcWA-117" value="" style="endArrow=none;html=1;rounded=0;" parent="1" edge="1">
          <mxGeometry width="50" height="50" relative="1" as="geometry">
            <mxPoint x="157" y="1532" as="sourcePoint" />
            <mxPoint x="157" y="1507" as="targetPoint" />
          </mxGeometry>
        </mxCell>
        <mxCell id="2sBCA7uiXcgq0fx1kcWA-118" value="FK" style="text;html=1;align=center;verticalAlign=middle;resizable=0;points=[];autosize=1;strokeColor=none;fillColor=none;" parent="1" vertex="1">
          <mxGeometry x="122" y="1497" width="40" height="30" as="geometry" />
        </mxCell>
        <mxCell id="2sBCA7uiXcgq0fx1kcWA-121" value="no_seri" style="text;html=1;align=center;verticalAlign=middle;resizable=0;points=[];autosize=1;strokeColor=none;fillColor=none;" parent="1" vertex="1">
          <mxGeometry x="155" y="1496" width="60" height="30" as="geometry" />
        </mxCell>
        <mxCell id="2sBCA7uiXcgq0fx1kcWA-122" value="" style="endArrow=none;html=1;rounded=0;" parent="1" edge="1">
          <mxGeometry width="50" height="50" relative="1" as="geometry">
            <mxPoint x="-340" y="1680" as="sourcePoint" />
            <mxPoint x="-287" y="1680" as="targetPoint" />
          </mxGeometry>
        </mxCell>
        <mxCell id="2sBCA7uiXcgq0fx1kcWA-124" value="" style="endArrow=none;html=1;rounded=0;" parent="1" edge="1">
          <mxGeometry width="50" height="50" relative="1" as="geometry">
            <mxPoint x="-240" y="1540" as="sourcePoint" />
            <mxPoint x="127" y="1540.44" as="targetPoint" />
          </mxGeometry>
        </mxCell>
        <mxCell id="2sBCA7uiXcgq0fx1kcWA-125" value="" style="endArrow=none;html=1;rounded=0;exitX=1;exitY=0.5;exitDx=0;exitDy=0;entryX=0.025;entryY=0.533;entryDx=0;entryDy=0;entryPerimeter=0;" parent="1" edge="1" target="2sBCA7uiXcgq0fx1kcWA-140">
          <mxGeometry width="50" height="50" relative="1" as="geometry">
            <mxPoint x="-49" y="734" as="sourcePoint" />
            <mxPoint x="120" y="1120" as="targetPoint" />
            <Array as="points">
              <mxPoint x="40" y="734" />
              <mxPoint x="40" y="1120" />
            </Array>
          </mxGeometry>
        </mxCell>
        <mxCell id="2sBCA7uiXcgq0fx1kcWA-127" value="penjualan" style="shape=table;startSize=30;container=1;collapsible=1;childLayout=tableLayout;fixedRows=1;rowLines=0;fontStyle=1;align=center;resizeLast=1;html=1;" parent="1" vertex="1">
          <mxGeometry x="117" y="1044" width="180" height="216" as="geometry">
            <mxRectangle x="120" y="950" width="90" height="30" as="alternateBounds" />
          </mxGeometry>
        </mxCell>
        <mxCell id="2sBCA7uiXcgq0fx1kcWA-128" value="" style="shape=tableRow;horizontal=0;startSize=0;swimlaneHead=0;swimlaneBody=0;fillColor=none;collapsible=0;dropTarget=0;points=[[0,0.5],[1,0.5]];portConstraint=eastwest;top=0;left=0;right=0;bottom=1;" parent="2sBCA7uiXcgq0fx1kcWA-127" vertex="1">
          <mxGeometry y="30" width="180" height="30" as="geometry" />
        </mxCell>
        <mxCell id="2sBCA7uiXcgq0fx1kcWA-129" value="PK" style="shape=partialRectangle;connectable=0;fillColor=none;top=0;left=0;bottom=0;right=0;fontStyle=1;overflow=hidden;whiteSpace=wrap;html=1;" parent="2sBCA7uiXcgq0fx1kcWA-128" vertex="1">
          <mxGeometry width="30" height="30" as="geometry">
            <mxRectangle width="30" height="30" as="alternateBounds" />
          </mxGeometry>
        </mxCell>
        <mxCell id="2sBCA7uiXcgq0fx1kcWA-130" value="kode_penjualan" style="shape=partialRectangle;connectable=0;fillColor=none;top=0;left=0;bottom=0;right=0;align=left;spacingLeft=6;fontStyle=5;overflow=hidden;whiteSpace=wrap;html=1;" parent="2sBCA7uiXcgq0fx1kcWA-128" vertex="1">
          <mxGeometry x="30" width="150" height="30" as="geometry">
            <mxRectangle width="150" height="30" as="alternateBounds" />
          </mxGeometry>
        </mxCell>
        <mxCell id="2sBCA7uiXcgq0fx1kcWA-131" value="" style="shape=tableRow;horizontal=0;startSize=0;swimlaneHead=0;swimlaneBody=0;fillColor=none;collapsible=0;dropTarget=0;points=[[0,0.5],[1,0.5]];portConstraint=eastwest;top=0;left=0;right=0;bottom=0;" parent="2sBCA7uiXcgq0fx1kcWA-127" vertex="1">
          <mxGeometry y="60" width="180" height="30" as="geometry" />
        </mxCell>
        <mxCell id="2sBCA7uiXcgq0fx1kcWA-132" value="" style="shape=partialRectangle;connectable=0;fillColor=none;top=0;left=0;bottom=0;right=0;editable=1;overflow=hidden;whiteSpace=wrap;html=1;" parent="2sBCA7uiXcgq0fx1kcWA-131" vertex="1">
          <mxGeometry width="30" height="30" as="geometry">
            <mxRectangle width="30" height="30" as="alternateBounds" />
          </mxGeometry>
        </mxCell>
        <mxCell id="2sBCA7uiXcgq0fx1kcWA-133" value="NIK" style="shape=partialRectangle;connectable=0;fillColor=none;top=0;left=0;bottom=0;right=0;align=left;spacingLeft=6;overflow=hidden;whiteSpace=wrap;html=1;" parent="2sBCA7uiXcgq0fx1kcWA-131" vertex="1">
          <mxGeometry x="30" width="150" height="30" as="geometry">
            <mxRectangle width="150" height="30" as="alternateBounds" />
          </mxGeometry>
        </mxCell>
        <mxCell id="2sBCA7uiXcgq0fx1kcWA-134" value="" style="shape=tableRow;horizontal=0;startSize=0;swimlaneHead=0;swimlaneBody=0;fillColor=none;collapsible=0;dropTarget=0;points=[[0,0.5],[1,0.5]];portConstraint=eastwest;top=0;left=0;right=0;bottom=0;" parent="2sBCA7uiXcgq0fx1kcWA-127" vertex="1">
          <mxGeometry y="90" width="180" height="30" as="geometry" />
        </mxCell>
        <mxCell id="2sBCA7uiXcgq0fx1kcWA-135" value="" style="shape=partialRectangle;connectable=0;fillColor=none;top=0;left=0;bottom=0;right=0;editable=1;overflow=hidden;whiteSpace=wrap;html=1;" parent="2sBCA7uiXcgq0fx1kcWA-134" vertex="1">
          <mxGeometry width="30" height="30" as="geometry">
            <mxRectangle width="30" height="30" as="alternateBounds" />
          </mxGeometry>
        </mxCell>
        <mxCell id="2sBCA7uiXcgq0fx1kcWA-136" value="QTY" style="shape=partialRectangle;connectable=0;fillColor=none;top=0;left=0;bottom=0;right=0;align=left;spacingLeft=6;overflow=hidden;whiteSpace=wrap;html=1;" parent="2sBCA7uiXcgq0fx1kcWA-134" vertex="1">
          <mxGeometry x="30" width="150" height="30" as="geometry">
            <mxRectangle width="150" height="30" as="alternateBounds" />
          </mxGeometry>
        </mxCell>
        <mxCell id="2sBCA7uiXcgq0fx1kcWA-137" value="" style="shape=tableRow;horizontal=0;startSize=0;swimlaneHead=0;swimlaneBody=0;fillColor=none;collapsible=0;dropTarget=0;points=[[0,0.5],[1,0.5]];portConstraint=eastwest;top=0;left=0;right=0;bottom=0;" parent="2sBCA7uiXcgq0fx1kcWA-127" vertex="1">
          <mxGeometry y="120" width="180" height="30" as="geometry" />
        </mxCell>
        <mxCell id="2sBCA7uiXcgq0fx1kcWA-138" value="" style="shape=partialRectangle;connectable=0;fillColor=none;top=0;left=0;bottom=0;right=0;editable=1;overflow=hidden;whiteSpace=wrap;html=1;" parent="2sBCA7uiXcgq0fx1kcWA-137" vertex="1">
          <mxGeometry width="30" height="30" as="geometry">
            <mxRectangle width="30" height="30" as="alternateBounds" />
          </mxGeometry>
        </mxCell>
        <mxCell id="2sBCA7uiXcgq0fx1kcWA-139" value="harga_perunit" style="shape=partialRectangle;connectable=0;fillColor=none;top=0;left=0;bottom=0;right=0;align=left;spacingLeft=6;overflow=hidden;whiteSpace=wrap;html=1;" parent="2sBCA7uiXcgq0fx1kcWA-137" vertex="1">
          <mxGeometry x="30" width="150" height="30" as="geometry">
            <mxRectangle width="150" height="30" as="alternateBounds" />
          </mxGeometry>
        </mxCell>
        <mxCell id="2sBCA7uiXcgq0fx1kcWA-140" value="FK" style="text;html=1;align=center;verticalAlign=middle;resizable=0;points=[];autosize=1;strokeColor=none;fillColor=none;" parent="1" vertex="1">
          <mxGeometry x="112" y="1104" width="40" height="30" as="geometry" />
        </mxCell>
        <mxCell id="2sBCA7uiXcgq0fx1kcWA-141" value="" style="endArrow=none;html=1;rounded=0;" parent="1" edge="1">
          <mxGeometry width="50" height="50" relative="1" as="geometry">
            <mxPoint x="147" y="1231" as="sourcePoint" />
            <mxPoint x="147" y="1179" as="targetPoint" />
          </mxGeometry>
        </mxCell>
        <mxCell id="2sBCA7uiXcgq0fx1kcWA-142" value="tgl_penjualan" style="text;html=1;align=center;verticalAlign=middle;resizable=0;points=[];autosize=1;strokeColor=none;fillColor=none;" parent="1" vertex="1">
          <mxGeometry x="145" y="1195" width="90" height="30" as="geometry" />
        </mxCell>
        <mxCell id="2sBCA7uiXcgq0fx1kcWA-143" value="" style="endArrow=none;html=1;rounded=0;" parent="1" edge="1">
          <mxGeometry width="50" height="50" relative="1" as="geometry">
            <mxPoint x="-160" y="1241" as="sourcePoint" />
            <mxPoint x="117" y="1241" as="targetPoint" />
          </mxGeometry>
        </mxCell>
        <mxCell id="2sBCA7uiXcgq0fx1kcWA-144" value="" style="endArrow=none;html=1;rounded=0;" parent="1" edge="1">
          <mxGeometry width="50" height="50" relative="1" as="geometry">
            <mxPoint x="-680" y="731" as="sourcePoint" />
            <mxPoint x="-640" y="731" as="targetPoint" />
          </mxGeometry>
        </mxCell>
        <mxCell id="2sBCA7uiXcgq0fx1kcWA-145" value="" style="endArrow=none;html=1;rounded=0;" parent="1" edge="1">
          <mxGeometry width="50" height="50" relative="1" as="geometry">
            <mxPoint x="-640" y="1160" as="sourcePoint" />
            <mxPoint x="-640" y="731" as="targetPoint" />
          </mxGeometry>
        </mxCell>
        <mxCell id="2sBCA7uiXcgq0fx1kcWA-146" value="property" style="shape=table;startSize=30;container=1;collapsible=1;childLayout=tableLayout;fixedRows=1;rowLines=0;fontStyle=1;align=center;resizeLast=1;html=1;" parent="1" vertex="1">
          <mxGeometry x="-520" y="1000" width="180" height="177.5" as="geometry">
            <mxRectangle x="120" y="950" width="90" height="30" as="alternateBounds" />
          </mxGeometry>
        </mxCell>
        <mxCell id="2sBCA7uiXcgq0fx1kcWA-147" value="" style="shape=tableRow;horizontal=0;startSize=0;swimlaneHead=0;swimlaneBody=0;fillColor=none;collapsible=0;dropTarget=0;points=[[0,0.5],[1,0.5]];portConstraint=eastwest;top=0;left=0;right=0;bottom=1;" parent="2sBCA7uiXcgq0fx1kcWA-146" vertex="1">
          <mxGeometry y="30" width="180" height="30" as="geometry" />
        </mxCell>
        <mxCell id="2sBCA7uiXcgq0fx1kcWA-148" value="PK" style="shape=partialRectangle;connectable=0;fillColor=none;top=0;left=0;bottom=0;right=0;fontStyle=1;overflow=hidden;whiteSpace=wrap;html=1;" parent="2sBCA7uiXcgq0fx1kcWA-147" vertex="1">
          <mxGeometry width="30" height="30" as="geometry">
            <mxRectangle width="30" height="30" as="alternateBounds" />
          </mxGeometry>
        </mxCell>
        <mxCell id="2sBCA7uiXcgq0fx1kcWA-149" value="ID_property" style="shape=partialRectangle;connectable=0;fillColor=none;top=0;left=0;bottom=0;right=0;align=left;spacingLeft=6;fontStyle=5;overflow=hidden;whiteSpace=wrap;html=1;" parent="2sBCA7uiXcgq0fx1kcWA-147" vertex="1">
          <mxGeometry x="30" width="150" height="30" as="geometry">
            <mxRectangle width="150" height="30" as="alternateBounds" />
          </mxGeometry>
        </mxCell>
        <mxCell id="2sBCA7uiXcgq0fx1kcWA-150" value="" style="shape=tableRow;horizontal=0;startSize=0;swimlaneHead=0;swimlaneBody=0;fillColor=none;collapsible=0;dropTarget=0;points=[[0,0.5],[1,0.5]];portConstraint=eastwest;top=0;left=0;right=0;bottom=0;" parent="2sBCA7uiXcgq0fx1kcWA-146" vertex="1">
          <mxGeometry y="60" width="180" height="30" as="geometry" />
        </mxCell>
        <mxCell id="2sBCA7uiXcgq0fx1kcWA-151" value="" style="shape=partialRectangle;connectable=0;fillColor=none;top=0;left=0;bottom=0;right=0;editable=1;overflow=hidden;whiteSpace=wrap;html=1;" parent="2sBCA7uiXcgq0fx1kcWA-150" vertex="1">
          <mxGeometry width="30" height="30" as="geometry">
            <mxRectangle width="30" height="30" as="alternateBounds" />
          </mxGeometry>
        </mxCell>
        <mxCell id="2sBCA7uiXcgq0fx1kcWA-152" value="alamat" style="shape=partialRectangle;connectable=0;fillColor=none;top=0;left=0;bottom=0;right=0;align=left;spacingLeft=6;overflow=hidden;whiteSpace=wrap;html=1;" parent="2sBCA7uiXcgq0fx1kcWA-150" vertex="1">
          <mxGeometry x="30" width="150" height="30" as="geometry">
            <mxRectangle width="150" height="30" as="alternateBounds" />
          </mxGeometry>
        </mxCell>
        <mxCell id="2sBCA7uiXcgq0fx1kcWA-153" value="" style="shape=tableRow;horizontal=0;startSize=0;swimlaneHead=0;swimlaneBody=0;fillColor=none;collapsible=0;dropTarget=0;points=[[0,0.5],[1,0.5]];portConstraint=eastwest;top=0;left=0;right=0;bottom=0;" parent="2sBCA7uiXcgq0fx1kcWA-146" vertex="1">
          <mxGeometry y="90" width="180" height="30" as="geometry" />
        </mxCell>
        <mxCell id="2sBCA7uiXcgq0fx1kcWA-154" value="" style="shape=partialRectangle;connectable=0;fillColor=none;top=0;left=0;bottom=0;right=0;editable=1;overflow=hidden;whiteSpace=wrap;html=1;" parent="2sBCA7uiXcgq0fx1kcWA-153" vertex="1">
          <mxGeometry width="30" height="30" as="geometry">
            <mxRectangle width="30" height="30" as="alternateBounds" />
          </mxGeometry>
        </mxCell>
        <mxCell id="2sBCA7uiXcgq0fx1kcWA-155" value="luas_bangunan" style="shape=partialRectangle;connectable=0;fillColor=none;top=0;left=0;bottom=0;right=0;align=left;spacingLeft=6;overflow=hidden;whiteSpace=wrap;html=1;" parent="2sBCA7uiXcgq0fx1kcWA-153" vertex="1">
          <mxGeometry x="30" width="150" height="30" as="geometry">
            <mxRectangle width="150" height="30" as="alternateBounds" />
          </mxGeometry>
        </mxCell>
        <mxCell id="2sBCA7uiXcgq0fx1kcWA-156" value="" style="shape=tableRow;horizontal=0;startSize=0;swimlaneHead=0;swimlaneBody=0;fillColor=none;collapsible=0;dropTarget=0;points=[[0,0.5],[1,0.5]];portConstraint=eastwest;top=0;left=0;right=0;bottom=0;" parent="2sBCA7uiXcgq0fx1kcWA-146" vertex="1">
          <mxGeometry y="120" width="180" height="30" as="geometry" />
        </mxCell>
        <mxCell id="2sBCA7uiXcgq0fx1kcWA-157" value="" style="shape=partialRectangle;connectable=0;fillColor=none;top=0;left=0;bottom=0;right=0;editable=1;overflow=hidden;whiteSpace=wrap;html=1;" parent="2sBCA7uiXcgq0fx1kcWA-156" vertex="1">
          <mxGeometry width="30" height="30" as="geometry">
            <mxRectangle width="30" height="30" as="alternateBounds" />
          </mxGeometry>
        </mxCell>
        <mxCell id="2sBCA7uiXcgq0fx1kcWA-158" value="luas_tanah" style="shape=partialRectangle;connectable=0;fillColor=none;top=0;left=0;bottom=0;right=0;align=left;spacingLeft=6;overflow=hidden;whiteSpace=wrap;html=1;" parent="2sBCA7uiXcgq0fx1kcWA-156" vertex="1">
          <mxGeometry x="30" width="150" height="30" as="geometry">
            <mxRectangle width="150" height="30" as="alternateBounds" />
          </mxGeometry>
        </mxCell>
        <mxCell id="2sBCA7uiXcgq0fx1kcWA-159" value="" style="endArrow=none;html=1;rounded=0;" parent="1" edge="1">
          <mxGeometry width="50" height="50" relative="1" as="geometry">
            <mxPoint x="-490" y="1177.5" as="sourcePoint" />
            <mxPoint x="-490" y="1150" as="targetPoint" />
          </mxGeometry>
        </mxCell>
        <mxCell id="2sBCA7uiXcgq0fx1kcWA-160" value="FK" style="text;html=1;align=center;verticalAlign=middle;resizable=0;points=[];autosize=1;strokeColor=none;fillColor=none;" parent="1" vertex="1">
          <mxGeometry x="-526" y="1145" width="40" height="30" as="geometry" />
        </mxCell>
        <mxCell id="2sBCA7uiXcgq0fx1kcWA-161" value="ID_staff" style="text;html=1;align=center;verticalAlign=middle;resizable=0;points=[];autosize=1;strokeColor=none;fillColor=none;" parent="1" vertex="1">
          <mxGeometry x="-492" y="1145" width="60" height="30" as="geometry" />
        </mxCell>
        <mxCell id="2sBCA7uiXcgq0fx1kcWA-164" value="" style="endArrow=none;html=1;rounded=0;" parent="1" edge="1">
          <mxGeometry width="50" height="50" relative="1" as="geometry">
            <mxPoint x="-640" y="1159.44" as="sourcePoint" />
            <mxPoint x="-520" y="1159" as="targetPoint" />
          </mxGeometry>
        </mxCell>
        <mxCell id="2sBCA7uiXcgq0fx1kcWA-165" value="costumer" style="shape=table;startSize=30;container=1;collapsible=1;childLayout=tableLayout;fixedRows=1;rowLines=0;fontStyle=1;align=center;resizeLast=1;html=1;" parent="1" vertex="1">
          <mxGeometry x="-229" y="678" width="180" height="242" as="geometry">
            <mxRectangle x="120" y="950" width="90" height="30" as="alternateBounds" />
          </mxGeometry>
        </mxCell>
        <mxCell id="2sBCA7uiXcgq0fx1kcWA-166" value="" style="shape=tableRow;horizontal=0;startSize=0;swimlaneHead=0;swimlaneBody=0;fillColor=none;collapsible=0;dropTarget=0;points=[[0,0.5],[1,0.5]];portConstraint=eastwest;top=0;left=0;right=0;bottom=1;" parent="2sBCA7uiXcgq0fx1kcWA-165" vertex="1">
          <mxGeometry y="30" width="180" height="30" as="geometry" />
        </mxCell>
        <mxCell id="2sBCA7uiXcgq0fx1kcWA-167" value="PK" style="shape=partialRectangle;connectable=0;fillColor=none;top=0;left=0;bottom=0;right=0;fontStyle=1;overflow=hidden;whiteSpace=wrap;html=1;" parent="2sBCA7uiXcgq0fx1kcWA-166" vertex="1">
          <mxGeometry width="30" height="30" as="geometry">
            <mxRectangle width="30" height="30" as="alternateBounds" />
          </mxGeometry>
        </mxCell>
        <mxCell id="2sBCA7uiXcgq0fx1kcWA-168" value="NIK" style="shape=partialRectangle;connectable=0;fillColor=none;top=0;left=0;bottom=0;right=0;align=left;spacingLeft=6;fontStyle=5;overflow=hidden;whiteSpace=wrap;html=1;" parent="2sBCA7uiXcgq0fx1kcWA-166" vertex="1">
          <mxGeometry x="30" width="150" height="30" as="geometry">
            <mxRectangle width="150" height="30" as="alternateBounds" />
          </mxGeometry>
        </mxCell>
        <mxCell id="2sBCA7uiXcgq0fx1kcWA-169" value="" style="shape=tableRow;horizontal=0;startSize=0;swimlaneHead=0;swimlaneBody=0;fillColor=none;collapsible=0;dropTarget=0;points=[[0,0.5],[1,0.5]];portConstraint=eastwest;top=0;left=0;right=0;bottom=0;" parent="2sBCA7uiXcgq0fx1kcWA-165" vertex="1">
          <mxGeometry y="60" width="180" height="30" as="geometry" />
        </mxCell>
        <mxCell id="2sBCA7uiXcgq0fx1kcWA-170" value="" style="shape=partialRectangle;connectable=0;fillColor=none;top=0;left=0;bottom=0;right=0;editable=1;overflow=hidden;whiteSpace=wrap;html=1;" parent="2sBCA7uiXcgq0fx1kcWA-169" vertex="1">
          <mxGeometry width="30" height="30" as="geometry">
            <mxRectangle width="30" height="30" as="alternateBounds" />
          </mxGeometry>
        </mxCell>
        <mxCell id="2sBCA7uiXcgq0fx1kcWA-171" value="nama" style="shape=partialRectangle;connectable=0;fillColor=none;top=0;left=0;bottom=0;right=0;align=left;spacingLeft=6;overflow=hidden;whiteSpace=wrap;html=1;" parent="2sBCA7uiXcgq0fx1kcWA-169" vertex="1">
          <mxGeometry x="30" width="150" height="30" as="geometry">
            <mxRectangle width="150" height="30" as="alternateBounds" />
          </mxGeometry>
        </mxCell>
        <mxCell id="2sBCA7uiXcgq0fx1kcWA-172" value="" style="shape=tableRow;horizontal=0;startSize=0;swimlaneHead=0;swimlaneBody=0;fillColor=none;collapsible=0;dropTarget=0;points=[[0,0.5],[1,0.5]];portConstraint=eastwest;top=0;left=0;right=0;bottom=0;" parent="2sBCA7uiXcgq0fx1kcWA-165" vertex="1">
          <mxGeometry y="90" width="180" height="30" as="geometry" />
        </mxCell>
        <mxCell id="2sBCA7uiXcgq0fx1kcWA-173" value="" style="shape=partialRectangle;connectable=0;fillColor=none;top=0;left=0;bottom=0;right=0;editable=1;overflow=hidden;whiteSpace=wrap;html=1;" parent="2sBCA7uiXcgq0fx1kcWA-172" vertex="1">
          <mxGeometry width="30" height="30" as="geometry">
            <mxRectangle width="30" height="30" as="alternateBounds" />
          </mxGeometry>
        </mxCell>
        <mxCell id="2sBCA7uiXcgq0fx1kcWA-174" value="alamat" style="shape=partialRectangle;connectable=0;fillColor=none;top=0;left=0;bottom=0;right=0;align=left;spacingLeft=6;overflow=hidden;whiteSpace=wrap;html=1;" parent="2sBCA7uiXcgq0fx1kcWA-172" vertex="1">
          <mxGeometry x="30" width="150" height="30" as="geometry">
            <mxRectangle width="150" height="30" as="alternateBounds" />
          </mxGeometry>
        </mxCell>
        <mxCell id="2sBCA7uiXcgq0fx1kcWA-175" value="" style="shape=tableRow;horizontal=0;startSize=0;swimlaneHead=0;swimlaneBody=0;fillColor=none;collapsible=0;dropTarget=0;points=[[0,0.5],[1,0.5]];portConstraint=eastwest;top=0;left=0;right=0;bottom=0;" parent="2sBCA7uiXcgq0fx1kcWA-165" vertex="1">
          <mxGeometry y="120" width="180" height="30" as="geometry" />
        </mxCell>
        <mxCell id="2sBCA7uiXcgq0fx1kcWA-176" value="" style="shape=partialRectangle;connectable=0;fillColor=none;top=0;left=0;bottom=0;right=0;editable=1;overflow=hidden;whiteSpace=wrap;html=1;" parent="2sBCA7uiXcgq0fx1kcWA-175" vertex="1">
          <mxGeometry width="30" height="30" as="geometry">
            <mxRectangle width="30" height="30" as="alternateBounds" />
          </mxGeometry>
        </mxCell>
        <mxCell id="2sBCA7uiXcgq0fx1kcWA-177" value="no.tlp" style="shape=partialRectangle;connectable=0;fillColor=none;top=0;left=0;bottom=0;right=0;align=left;spacingLeft=6;overflow=hidden;whiteSpace=wrap;html=1;" parent="2sBCA7uiXcgq0fx1kcWA-175" vertex="1">
          <mxGeometry x="30" width="150" height="30" as="geometry">
            <mxRectangle width="150" height="30" as="alternateBounds" />
          </mxGeometry>
        </mxCell>
        <mxCell id="2sBCA7uiXcgq0fx1kcWA-178" value="" style="endArrow=none;html=1;rounded=0;" parent="1" edge="1">
          <mxGeometry width="50" height="50" relative="1" as="geometry">
            <mxPoint x="-199" y="883" as="sourcePoint" />
            <mxPoint x="-199" y="828" as="targetPoint" />
          </mxGeometry>
        </mxCell>
        <mxCell id="2sBCA7uiXcgq0fx1kcWA-180" value="email" style="text;html=1;align=center;verticalAlign=middle;resizable=0;points=[];autosize=1;strokeColor=none;fillColor=none;" parent="1" vertex="1">
          <mxGeometry x="-202" y="824" width="50" height="30" as="geometry" />
        </mxCell>
        <mxCell id="2sBCA7uiXcgq0fx1kcWA-181" value="FK" style="text;html=1;align=center;verticalAlign=middle;resizable=0;points=[];autosize=1;strokeColor=none;fillColor=none;" parent="1" vertex="1">
          <mxGeometry x="-235" y="850" width="40" height="30" as="geometry" />
        </mxCell>
        <mxCell id="2sBCA7uiXcgq0fx1kcWA-182" value="ID_cabang" style="text;html=1;align=center;verticalAlign=middle;resizable=0;points=[];autosize=1;strokeColor=none;fillColor=none;" parent="1" vertex="1">
          <mxGeometry x="-202" y="851" width="80" height="30" as="geometry" />
        </mxCell>
        <mxCell id="2sBCA7uiXcgq0fx1kcWA-184" value="" style="endArrow=none;html=1;rounded=0;" parent="1" edge="1">
          <mxGeometry width="50" height="50" relative="1" as="geometry">
            <mxPoint x="147" y="1260" as="sourcePoint" />
            <mxPoint x="147" y="1229" as="targetPoint" />
          </mxGeometry>
        </mxCell>
        <mxCell id="2sBCA7uiXcgq0fx1kcWA-185" value="FK" style="text;html=1;align=center;verticalAlign=middle;resizable=0;points=[];autosize=1;strokeColor=none;fillColor=none;" parent="1" vertex="1">
          <mxGeometry x="113" y="1225" width="40" height="30" as="geometry" />
        </mxCell>
        <mxCell id="2sBCA7uiXcgq0fx1kcWA-186" value="ID_property" style="text;html=1;align=center;verticalAlign=middle;resizable=0;points=[];autosize=1;strokeColor=none;fillColor=none;" parent="1" vertex="1">
          <mxGeometry x="140" y="1225" width="90" height="30" as="geometry" />
        </mxCell>
        <mxCell id="2sBCA7uiXcgq0fx1kcWA-187" value="" style="endArrow=none;html=1;rounded=0;" parent="1" edge="1">
          <mxGeometry width="50" height="50" relative="1" as="geometry">
            <mxPoint x="-160.56" y="1242" as="sourcePoint" />
            <mxPoint x="-161" y="1040" as="targetPoint" />
          </mxGeometry>
        </mxCell>
        <mxCell id="2sBCA7uiXcgq0fx1kcWA-188" value="" style="endArrow=none;html=1;rounded=0;" parent="1" edge="1">
          <mxGeometry width="50" height="50" relative="1" as="geometry">
            <mxPoint x="-339" y="1040" as="sourcePoint" />
            <mxPoint x="-160" y="1040" as="targetPoint" />
          </mxGeometry>
        </mxCell>
        <mxCell id="2sBCA7uiXcgq0fx1kcWA-190" value="FK" style="text;html=1;align=center;verticalAlign=middle;resizable=0;points=[];autosize=1;strokeColor=none;fillColor=none;" parent="1" vertex="1">
          <mxGeometry x="122" y="1524" width="40" height="30" as="geometry" />
        </mxCell>
        <mxCell id="2sBCA7uiXcgq0fx1kcWA-191" value="" style="endArrow=none;html=1;rounded=0;" parent="1" edge="1">
          <mxGeometry width="50" height="50" relative="1" as="geometry">
            <mxPoint x="156" y="1590" as="sourcePoint" />
            <mxPoint x="156.44" y="1532" as="targetPoint" />
          </mxGeometry>
        </mxCell>
        <mxCell id="2sBCA7uiXcgq0fx1kcWA-192" value="ID_property" style="text;html=1;align=center;verticalAlign=middle;resizable=0;points=[];autosize=1;strokeColor=none;fillColor=none;" parent="1" vertex="1">
          <mxGeometry x="152" y="1525" width="90" height="30" as="geometry" />
        </mxCell>
        <mxCell id="2sBCA7uiXcgq0fx1kcWA-193" value="" style="endArrow=none;html=1;rounded=0;" parent="1" edge="1">
          <mxGeometry width="50" height="50" relative="1" as="geometry">
            <mxPoint x="-339" y="1051" as="sourcePoint" />
            <mxPoint x="-240" y="1051" as="targetPoint" />
          </mxGeometry>
        </mxCell>
        <mxCell id="2sBCA7uiXcgq0fx1kcWA-194" value="" style="endArrow=none;html=1;rounded=0;" parent="1" edge="1">
          <mxGeometry width="50" height="50" relative="1" as="geometry">
            <mxPoint x="-240" y="1540" as="sourcePoint" />
            <mxPoint x="-240" y="1052" as="targetPoint" />
          </mxGeometry>
        </mxCell>
        <mxCell id="2sBCA7uiXcgq0fx1kcWA-195" value="" style="endArrow=none;html=1;rounded=0;" parent="1" edge="1">
          <mxGeometry width="50" height="50" relative="1" as="geometry">
            <mxPoint x="297" y="849" as="sourcePoint" />
            <mxPoint x="360" y="849" as="targetPoint" />
          </mxGeometry>
        </mxCell>
        <mxCell id="2sBCA7uiXcgq0fx1kcWA-196" value="" style="endArrow=none;html=1;rounded=0;" parent="1" edge="1">
          <mxGeometry width="50" height="50" relative="1" as="geometry">
            <mxPoint x="360" y="1510" as="sourcePoint" />
            <mxPoint x="360" y="848" as="targetPoint" />
          </mxGeometry>
        </mxCell>
        <mxCell id="2sBCA7uiXcgq0fx1kcWA-197" value="" style="endArrow=none;html=1;rounded=0;" parent="1" edge="1">
          <mxGeometry width="50" height="50" relative="1" as="geometry">
            <mxPoint x="308" y="1510.44" as="sourcePoint" />
            <mxPoint x="360" y="1510.44" as="targetPoint" />
          </mxGeometry>
        </mxCell>
        <mxCell id="2sBCA7uiXcgq0fx1kcWA-198" value="" style="endArrow=none;html=1;rounded=0;" parent="1" edge="1">
          <mxGeometry width="50" height="50" relative="1" as="geometry">
            <mxPoint x="-601" y="1040" as="sourcePoint" />
            <mxPoint x="-520" y="1040" as="targetPoint" />
          </mxGeometry>
        </mxCell>
        <mxCell id="2sBCA7uiXcgq0fx1kcWA-199" value="internet" style="shape=table;startSize=30;container=1;collapsible=1;childLayout=tableLayout;fixedRows=1;rowLines=0;fontStyle=1;align=center;resizeLast=1;html=1;" parent="1" vertex="1">
          <mxGeometry x="-107" y="1636" width="180" height="150" as="geometry" />
        </mxCell>
        <mxCell id="2sBCA7uiXcgq0fx1kcWA-200" value="" style="shape=tableRow;horizontal=0;startSize=0;swimlaneHead=0;swimlaneBody=0;fillColor=none;collapsible=0;dropTarget=0;points=[[0,0.5],[1,0.5]];portConstraint=eastwest;top=0;left=0;right=0;bottom=1;" parent="2sBCA7uiXcgq0fx1kcWA-199" vertex="1">
          <mxGeometry y="30" width="180" height="30" as="geometry" />
        </mxCell>
        <mxCell id="2sBCA7uiXcgq0fx1kcWA-201" value="PK" style="shape=partialRectangle;connectable=0;fillColor=none;top=0;left=0;bottom=0;right=0;fontStyle=1;overflow=hidden;whiteSpace=wrap;html=1;" parent="2sBCA7uiXcgq0fx1kcWA-200" vertex="1">
          <mxGeometry width="30" height="30" as="geometry">
            <mxRectangle width="30" height="30" as="alternateBounds" />
          </mxGeometry>
        </mxCell>
        <mxCell id="2sBCA7uiXcgq0fx1kcWA-202" value="ID_iklan" style="shape=partialRectangle;connectable=0;fillColor=none;top=0;left=0;bottom=0;right=0;align=left;spacingLeft=6;fontStyle=5;overflow=hidden;whiteSpace=wrap;html=1;" parent="2sBCA7uiXcgq0fx1kcWA-200" vertex="1">
          <mxGeometry x="30" width="150" height="30" as="geometry">
            <mxRectangle width="150" height="30" as="alternateBounds" />
          </mxGeometry>
        </mxCell>
        <mxCell id="2sBCA7uiXcgq0fx1kcWA-203" value="" style="shape=tableRow;horizontal=0;startSize=0;swimlaneHead=0;swimlaneBody=0;fillColor=none;collapsible=0;dropTarget=0;points=[[0,0.5],[1,0.5]];portConstraint=eastwest;top=0;left=0;right=0;bottom=0;" parent="2sBCA7uiXcgq0fx1kcWA-199" vertex="1">
          <mxGeometry y="60" width="180" height="30" as="geometry" />
        </mxCell>
        <mxCell id="2sBCA7uiXcgq0fx1kcWA-204" value="" style="shape=partialRectangle;connectable=0;fillColor=none;top=0;left=0;bottom=0;right=0;editable=1;overflow=hidden;whiteSpace=wrap;html=1;" parent="2sBCA7uiXcgq0fx1kcWA-203" vertex="1">
          <mxGeometry width="30" height="30" as="geometry">
            <mxRectangle width="30" height="30" as="alternateBounds" />
          </mxGeometry>
        </mxCell>
        <mxCell id="2sBCA7uiXcgq0fx1kcWA-205" value="jenis_iklan" style="shape=partialRectangle;connectable=0;fillColor=none;top=0;left=0;bottom=0;right=0;align=left;spacingLeft=6;overflow=hidden;whiteSpace=wrap;html=1;" parent="2sBCA7uiXcgq0fx1kcWA-203" vertex="1">
          <mxGeometry x="30" width="150" height="30" as="geometry">
            <mxRectangle width="150" height="30" as="alternateBounds" />
          </mxGeometry>
        </mxCell>
        <mxCell id="2sBCA7uiXcgq0fx1kcWA-206" value="" style="shape=tableRow;horizontal=0;startSize=0;swimlaneHead=0;swimlaneBody=0;fillColor=none;collapsible=0;dropTarget=0;points=[[0,0.5],[1,0.5]];portConstraint=eastwest;top=0;left=0;right=0;bottom=0;" parent="2sBCA7uiXcgq0fx1kcWA-199" vertex="1">
          <mxGeometry y="90" width="180" height="30" as="geometry" />
        </mxCell>
        <mxCell id="2sBCA7uiXcgq0fx1kcWA-207" value="" style="shape=partialRectangle;connectable=0;fillColor=none;top=0;left=0;bottom=0;right=0;editable=1;overflow=hidden;whiteSpace=wrap;html=1;" parent="2sBCA7uiXcgq0fx1kcWA-206" vertex="1">
          <mxGeometry width="30" height="30" as="geometry">
            <mxRectangle width="30" height="30" as="alternateBounds" />
          </mxGeometry>
        </mxCell>
        <mxCell id="2sBCA7uiXcgq0fx1kcWA-208" value="jam_tayang" style="shape=partialRectangle;connectable=0;fillColor=none;top=0;left=0;bottom=0;right=0;align=left;spacingLeft=6;overflow=hidden;whiteSpace=wrap;html=1;" parent="2sBCA7uiXcgq0fx1kcWA-206" vertex="1">
          <mxGeometry x="30" width="150" height="30" as="geometry">
            <mxRectangle width="150" height="30" as="alternateBounds" />
          </mxGeometry>
        </mxCell>
        <mxCell id="2sBCA7uiXcgq0fx1kcWA-209" value="" style="shape=tableRow;horizontal=0;startSize=0;swimlaneHead=0;swimlaneBody=0;fillColor=none;collapsible=0;dropTarget=0;points=[[0,0.5],[1,0.5]];portConstraint=eastwest;top=0;left=0;right=0;bottom=0;" parent="2sBCA7uiXcgq0fx1kcWA-199" vertex="1">
          <mxGeometry y="120" width="180" height="30" as="geometry" />
        </mxCell>
        <mxCell id="2sBCA7uiXcgq0fx1kcWA-210" value="" style="shape=partialRectangle;connectable=0;fillColor=none;top=0;left=0;bottom=0;right=0;editable=1;overflow=hidden;whiteSpace=wrap;html=1;" parent="2sBCA7uiXcgq0fx1kcWA-209" vertex="1">
          <mxGeometry width="30" height="30" as="geometry">
            <mxRectangle width="30" height="30" as="alternateBounds" />
          </mxGeometry>
        </mxCell>
        <mxCell id="2sBCA7uiXcgq0fx1kcWA-211" value="alamat_url" style="shape=partialRectangle;connectable=0;fillColor=none;top=0;left=0;bottom=0;right=0;align=left;spacingLeft=6;overflow=hidden;whiteSpace=wrap;html=1;" parent="2sBCA7uiXcgq0fx1kcWA-209" vertex="1">
          <mxGeometry x="30" width="150" height="30" as="geometry">
            <mxRectangle width="150" height="30" as="alternateBounds" />
          </mxGeometry>
        </mxCell>
        <mxCell id="HustYe2b8EPFtb6rltRA-1" value="" style="endArrow=none;html=1;rounded=0;" edge="1" parent="1">
          <mxGeometry width="50" height="50" relative="1" as="geometry">
            <mxPoint x="-830" y="890" as="sourcePoint" />
            <mxPoint x="-830" y="830" as="targetPoint" />
          </mxGeometry>
        </mxCell>
        <mxCell id="HustYe2b8EPFtb6rltRA-2" value="FK" style="text;html=1;align=center;verticalAlign=middle;resizable=0;points=[];autosize=1;strokeColor=none;fillColor=none;" vertex="1" parent="1">
          <mxGeometry x="-865" y="825" width="40" height="30" as="geometry" />
        </mxCell>
        <mxCell id="HustYe2b8EPFtb6rltRA-3" value="ID_cabang" style="text;html=1;align=center;verticalAlign=middle;resizable=0;points=[];autosize=1;strokeColor=none;fillColor=none;" vertex="1" parent="1">
          <mxGeometry x="-834" y="825" width="80" height="30" as="geometry" />
        </mxCell>
        <mxCell id="HustYe2b8EPFtb6rltRA-4" value="FK" style="text;html=1;align=center;verticalAlign=middle;resizable=0;points=[];autosize=1;strokeColor=none;fillColor=none;" vertex="1" parent="1">
          <mxGeometry x="-865" y="851" width="40" height="30" as="geometry" />
        </mxCell>
        <mxCell id="HustYe2b8EPFtb6rltRA-5" value="ID_manager" style="text;html=1;align=center;verticalAlign=middle;resizable=0;points=[];autosize=1;strokeColor=none;fillColor=none;" vertex="1" parent="1">
          <mxGeometry x="-835" y="850" width="90" height="30" as="geometry" />
        </mxCell>
        <mxCell id="HustYe2b8EPFtb6rltRA-6" value="" style="endArrow=none;html=1;rounded=0;" edge="1" parent="1">
          <mxGeometry width="50" height="50" relative="1" as="geometry">
            <mxPoint x="-920" y="724" as="sourcePoint" />
            <mxPoint x="-861" y="724" as="targetPoint" />
          </mxGeometry>
        </mxCell>
        <mxCell id="HustYe2b8EPFtb6rltRA-7" value="" style="endArrow=none;html=1;rounded=0;" edge="1" parent="1">
          <mxGeometry width="50" height="50" relative="1" as="geometry">
            <mxPoint x="-860" y="870" as="sourcePoint" />
            <mxPoint x="-920" y="724" as="targetPoint" />
            <Array as="points">
              <mxPoint x="-920" y="870" />
            </Array>
          </mxGeometry>
        </mxCell>
        <mxCell id="HustYe2b8EPFtb6rltRA-9" value="" style="endArrow=none;html=1;rounded=0;" edge="1" parent="1">
          <mxGeometry width="50" height="50" relative="1" as="geometry">
            <mxPoint x="-199" y="920" as="sourcePoint" />
            <mxPoint x="-199" y="880" as="targetPoint" />
          </mxGeometry>
        </mxCell>
        <mxCell id="HustYe2b8EPFtb6rltRA-10" value="FK" style="text;html=1;align=center;verticalAlign=middle;resizable=0;points=[];autosize=1;strokeColor=none;fillColor=none;" vertex="1" parent="1">
          <mxGeometry x="-234" y="879" width="40" height="30" as="geometry" />
        </mxCell>
        <mxCell id="HustYe2b8EPFtb6rltRA-11" value="ID_staff" style="text;html=1;align=center;verticalAlign=middle;resizable=0;points=[];autosize=1;strokeColor=none;fillColor=none;" vertex="1" parent="1">
          <mxGeometry x="-199" y="879" width="60" height="30" as="geometry" />
        </mxCell>
        <mxCell id="HustYe2b8EPFtb6rltRA-12" value="" style="endArrow=none;html=1;rounded=0;" edge="1" parent="1">
          <mxGeometry width="50" height="50" relative="1" as="geometry">
            <mxPoint x="-680" y="715" as="sourcePoint" />
            <mxPoint x="-230" y="898" as="targetPoint" />
            <Array as="points">
              <mxPoint x="-600" y="715" />
              <mxPoint x="-600" y="640" />
              <mxPoint x="-310" y="640" />
              <mxPoint x="-310" y="700" />
              <mxPoint x="-290" y="720" />
              <mxPoint x="-310" y="750" />
              <mxPoint x="-310" y="898" />
            </Array>
          </mxGeometry>
        </mxCell>
        <mxCell id="HustYe2b8EPFtb6rltRA-13" value="FK" style="text;html=1;align=center;verticalAlign=middle;resizable=0;points=[];autosize=1;strokeColor=none;fillColor=none;" vertex="1" parent="1">
          <mxGeometry x="122" y="1551" width="40" height="30" as="geometry" />
        </mxCell>
        <mxCell id="HustYe2b8EPFtb6rltRA-14" value="NIK" style="text;html=1;align=center;verticalAlign=middle;resizable=0;points=[];autosize=1;strokeColor=none;fillColor=none;" vertex="1" parent="1">
          <mxGeometry x="155" y="1551" width="40" height="30" as="geometry" />
        </mxCell>
        <mxCell id="HustYe2b8EPFtb6rltRA-15" value="" style="endArrow=none;html=1;rounded=0;" edge="1" parent="1">
          <mxGeometry width="50" height="50" relative="1" as="geometry">
            <mxPoint x="-49" y="725" as="sourcePoint" />
            <mxPoint x="130" y="1566" as="targetPoint" />
            <Array as="points">
              <mxPoint y="725" />
              <mxPoint y="1340" />
              <mxPoint y="1510" />
              <mxPoint x="20" y="1530" />
              <mxPoint x="20" y="1550" />
              <mxPoint y="1566" />
            </Array>
          </mxGeometry>
        </mxCell>
        <mxCell id="HustYe2b8EPFtb6rltRA-16" value="owner" style="shape=table;startSize=30;container=1;collapsible=1;childLayout=tableLayout;fixedRows=1;rowLines=0;fontStyle=1;align=center;resizeLast=1;html=1;" vertex="1" parent="1">
          <mxGeometry x="-920" y="995" width="180" height="150" as="geometry" />
        </mxCell>
        <mxCell id="HustYe2b8EPFtb6rltRA-17" value="" style="shape=tableRow;horizontal=0;startSize=0;swimlaneHead=0;swimlaneBody=0;fillColor=none;collapsible=0;dropTarget=0;points=[[0,0.5],[1,0.5]];portConstraint=eastwest;top=0;left=0;right=0;bottom=1;" vertex="1" parent="HustYe2b8EPFtb6rltRA-16">
          <mxGeometry y="30" width="180" height="30" as="geometry" />
        </mxCell>
        <mxCell id="HustYe2b8EPFtb6rltRA-18" value="PK" style="shape=partialRectangle;connectable=0;fillColor=none;top=0;left=0;bottom=0;right=0;fontStyle=1;overflow=hidden;whiteSpace=wrap;html=1;" vertex="1" parent="HustYe2b8EPFtb6rltRA-17">
          <mxGeometry width="30" height="30" as="geometry">
            <mxRectangle width="30" height="30" as="alternateBounds" />
          </mxGeometry>
        </mxCell>
        <mxCell id="HustYe2b8EPFtb6rltRA-19" value="ID_owner" style="shape=partialRectangle;connectable=0;fillColor=none;top=0;left=0;bottom=0;right=0;align=left;spacingLeft=6;fontStyle=5;overflow=hidden;whiteSpace=wrap;html=1;" vertex="1" parent="HustYe2b8EPFtb6rltRA-17">
          <mxGeometry x="30" width="150" height="30" as="geometry">
            <mxRectangle width="150" height="30" as="alternateBounds" />
          </mxGeometry>
        </mxCell>
        <mxCell id="HustYe2b8EPFtb6rltRA-20" value="" style="shape=tableRow;horizontal=0;startSize=0;swimlaneHead=0;swimlaneBody=0;fillColor=none;collapsible=0;dropTarget=0;points=[[0,0.5],[1,0.5]];portConstraint=eastwest;top=0;left=0;right=0;bottom=0;" vertex="1" parent="HustYe2b8EPFtb6rltRA-16">
          <mxGeometry y="60" width="180" height="30" as="geometry" />
        </mxCell>
        <mxCell id="HustYe2b8EPFtb6rltRA-21" value="" style="shape=partialRectangle;connectable=0;fillColor=none;top=0;left=0;bottom=0;right=0;editable=1;overflow=hidden;whiteSpace=wrap;html=1;" vertex="1" parent="HustYe2b8EPFtb6rltRA-20">
          <mxGeometry width="30" height="30" as="geometry">
            <mxRectangle width="30" height="30" as="alternateBounds" />
          </mxGeometry>
        </mxCell>
        <mxCell id="HustYe2b8EPFtb6rltRA-22" value="Row 1" style="shape=partialRectangle;connectable=0;fillColor=none;top=0;left=0;bottom=0;right=0;align=left;spacingLeft=6;overflow=hidden;whiteSpace=wrap;html=1;" vertex="1" parent="HustYe2b8EPFtb6rltRA-20">
          <mxGeometry x="30" width="150" height="30" as="geometry">
            <mxRectangle width="150" height="30" as="alternateBounds" />
          </mxGeometry>
        </mxCell>
        <mxCell id="HustYe2b8EPFtb6rltRA-23" value="" style="shape=tableRow;horizontal=0;startSize=0;swimlaneHead=0;swimlaneBody=0;fillColor=none;collapsible=0;dropTarget=0;points=[[0,0.5],[1,0.5]];portConstraint=eastwest;top=0;left=0;right=0;bottom=0;" vertex="1" parent="HustYe2b8EPFtb6rltRA-16">
          <mxGeometry y="90" width="180" height="30" as="geometry" />
        </mxCell>
        <mxCell id="HustYe2b8EPFtb6rltRA-24" value="" style="shape=partialRectangle;connectable=0;fillColor=none;top=0;left=0;bottom=0;right=0;editable=1;overflow=hidden;whiteSpace=wrap;html=1;" vertex="1" parent="HustYe2b8EPFtb6rltRA-23">
          <mxGeometry width="30" height="30" as="geometry">
            <mxRectangle width="30" height="30" as="alternateBounds" />
          </mxGeometry>
        </mxCell>
        <mxCell id="HustYe2b8EPFtb6rltRA-25" value="Row 2" style="shape=partialRectangle;connectable=0;fillColor=none;top=0;left=0;bottom=0;right=0;align=left;spacingLeft=6;overflow=hidden;whiteSpace=wrap;html=1;" vertex="1" parent="HustYe2b8EPFtb6rltRA-23">
          <mxGeometry x="30" width="150" height="30" as="geometry">
            <mxRectangle width="150" height="30" as="alternateBounds" />
          </mxGeometry>
        </mxCell>
        <mxCell id="HustYe2b8EPFtb6rltRA-26" value="" style="shape=tableRow;horizontal=0;startSize=0;swimlaneHead=0;swimlaneBody=0;fillColor=none;collapsible=0;dropTarget=0;points=[[0,0.5],[1,0.5]];portConstraint=eastwest;top=0;left=0;right=0;bottom=0;" vertex="1" parent="HustYe2b8EPFtb6rltRA-16">
          <mxGeometry y="120" width="180" height="30" as="geometry" />
        </mxCell>
        <mxCell id="HustYe2b8EPFtb6rltRA-27" value="" style="shape=partialRectangle;connectable=0;fillColor=none;top=0;left=0;bottom=0;right=0;editable=1;overflow=hidden;whiteSpace=wrap;html=1;" vertex="1" parent="HustYe2b8EPFtb6rltRA-26">
          <mxGeometry width="30" height="30" as="geometry">
            <mxRectangle width="30" height="30" as="alternateBounds" />
          </mxGeometry>
        </mxCell>
        <mxCell id="HustYe2b8EPFtb6rltRA-28" value="Row 3" style="shape=partialRectangle;connectable=0;fillColor=none;top=0;left=0;bottom=0;right=0;align=left;spacingLeft=6;overflow=hidden;whiteSpace=wrap;html=1;" vertex="1" parent="HustYe2b8EPFtb6rltRA-26">
          <mxGeometry x="30" width="150" height="30" as="geometry">
            <mxRectangle width="150" height="30" as="alternateBounds" />
          </mxGeometry>
        </mxCell>
      </root>
    </mxGraphModel>
  </diagram>
</mxfile>
